<?xml version="1.0" encoding="utf-8"?>
<!-- Generator: Adobe Illustrator 22.0.1, SVG Export Plug-In . SVG Version: 6.00 Build 0)  -->
<svg version="1.1" id="Layer_1" xmlns="http://www.w3.org/2000/svg" xmlns:xlink="http://www.w3.org/1999/xlink" x="0px" y="0px"
	 width="250.1px" height="250.1px" viewBox="0 0 250.1 250.1" enable-background="new 0 0 250.1 250.1" xml:space="preserve">
<polygon fill="#FFFFFF" points="152.88,152.62 125.43,132.62 97.98,152.62 108.46,120.26 81.01,100.25 114.94,100.25 125.43,67.89 
	135.91,100.25 169.84,100.25 142.39,120.26 "/>
<path fill="#A2AAAD" d="M125.26,5.8C59.5,5.8,6.01,59.29,6.01,125.05c0,65.76,53.5,119.25,119.25,119.25s119.25-53.5,119.25-119.25
	C244.51,59.29,191.02,5.8,125.26,5.8z M125.83,200.71c-42.54,0-77.15-34.38-77.15-76.64c0-42.26,34.61-76.64,77.15-76.64
	s77.15,34.38,77.15,76.64C202.98,166.33,168.37,200.71,125.83,200.71z M0.05,125.05c0,68.92,56.07,125,125,125
	c68.93,0,125-56.08,125-125s-56.08-125-125-125C56.12,0.05,0.05,56.13,0.05,125.05 M1.74,125.05C1.74,57.06,57.06,1.74,125.05,1.74
	c67.99,0,123.31,55.32,123.31,123.31s-55.32,123.31-123.31,123.31C57.06,248.36,1.74,193.04,1.74,125.05 M141.37,190.94
	c-0.11,0.37-0.09,0.62-0.29,0.95c-0.27,0.47-1.09,1.05-1.83,1.25c-0.82,0.25-1.35,0-2.2,0c-1.23,0-1.95,0.25-3.16,0
	c-1.26-0.26-1.59-0.45-2.75-0.99c-2.48-1.16-2.49-1.63-7.31-3.77c-3-1.41-4.09-1.7-7.34-2.35c-4.19-0.48-5.56-1.06-8.59-1.54
	c-5.07-0.95-6.9,1.69-9.25,0.59c-4.38-2.45-4.39-3.06-6.28-5.28c-3.5,0.29-7.36,0.35-10.54-1.47c-2.65-1.3-3.89-4.29-3.75-6.45
	c1.32,0.19,1.35,0.19,3.08,0.88c0.93,0.27,1.51,0.29,1.76-0.04c0,0-0.18-0.4-0.92-0.51c-3.31-0.46-5.18-1.05-7.56-2.64
	c-3.3-2.1-5.34-3.72-7.34-6.96c3.9-0.46,3.41,0.67,5.25,0.04c0.09-0.34,0.33-0.51-0.15-0.88c-0.89-0.73-0.91-0.34-5.49-2.71
	c-1.48-0.85-2.09-1.57-3.24-3.38c-2.29-2.5-3.79-7.33-4.04-8.21c2.05,1.59,0.28,1.43,5.43,3.78c-0.36-1.09-1.06-2.36-1.84-3.33
	c-1.17-0.85-0.89,0.23-2.86-1.32c-2.73-2.21-3.03-6.41-3.78-9.94c-0.91-2.95-1.39-5.05-2.06-9.02c0.88,0.29,1.75,0.62,2.61,0.99
	c-0.05-1.48-0.84-1.44-1.47-4.69c-1.29-2.84-1.35-7.26-0.15-10.78c0.9-2.19,1.37-3.55,1.83-6.16c0.84,1.12,0.22,2.19,1.4,3.66
	l0.44-0.37c-0.69-1.89-0.87-3.24-0.81-5.94c0.44-4.68,1.79-8.95,4.48-13.05c0.75,2.01,1.06,3.89,0.95,5.65l0.51-0.07l0.81-1.69
	c-0.42-4.6,0.28-8.83,3.08-12.35c0.89-1.11,2.06-2.04,3.29-2.75c-0.89,2.78-0.86,3.4-0.35,3.78c0.58,0.18,1.04-0.3,1.93-1.23
	c-0.07-3.56,1.54-7.24,3.89-9.86c2.2-1.88,5.33-2.62,7.29-4.84c0.46,1.72-0.04,3.5-0.2,5.22c1.68-0.24,1.62-0.26,1.95-0.61
	c-0.11-2.65,2.8-7.38,6.28-9.48c2.59-1.45,7.19-1.03,10.63-1.08l-0.59,1.5c7.5,0.05,7.58,0.05,9.4-0.24
	c-2.49,4.07-4.6,4.29-6.9,5.57l1.64,1.41c-3.11,0.56-6.07,2.01-8.76,3.63c-3.33,2.84-4.61,2.8-8.81,2.88l-0.73,1.12
	c2.72,0.29,4.51,0.46,5.87-0.49c-0.53,2.26-2.12,3.27-3.8,4.44c-4.92,2.83-6.54,3.21-7.76,3.32c-1.02,0.29-0.46,0.4-1.95,1.19
	c2.58-0.31,2.71-0.38,4.61,0.35c-1.13,1.59-1.07,2.16-2.72,3.37c-1.33,1.18-2.89,2.11-4.4,3.03c-1,0.38-2.02,0.68-3.07,0.9
	c-0.39,0.27-0.69,0.57-1.78,2.16c0.57-0.09,1.13-0.16,1.69-0.31c0.52-0.22,1.02-0.49,1.54-0.72c0.23-0.18,0.45-0.38,0.66-0.59
	c0.04,0.76-0.05,1.53-0.18,2.27c-0.66,3.67-4.67,8.51-9.33,12.56c-0.68,0.72-0.98,1.33-1.41,2.05c0.92,0.16,2.39-1.01,2.65-1.56
	c0.13-0.28,0.65-1.23,0.85-1.63c1.81,3.05,1.14,4.05,1.3,5.65c0,1.58-1.2,5.41-2.6,7.69c-0.71,1.16-2.16,2.54-1.8,4.04
	c2.14-2.35,2.81-1.81,3.01-1.74c-0.82,2.06-0.75,4.81-0.34,6.96c0.45,2.36,1.79,4.52,1.74,6.95c-0.21,2.79-2.32,8-0.53,9.86
	c1.1-1.46,0.7-2.91,1.14-6.54c0.47,1.02,1.1,1.95,1.85,2.77c1.3,2.71,1.07,3.3,1.83,6.45c0.06,0.92,0.07,1.87,0.24,2.75
	c0.57-0.37,0.48-0.36,0.99-0.51c0.52,0.17,0.17,0.45,0.48,2.48l0.4,0.66c0.57,0.83,3.49,1.64,5.05,3.17
	c2.79,2.68,2.62,5.54,4.55,9.24c0.31,0.2,0.58,0.15,0.81-0.15c-0.21-1.13-0.13-2.27-0.19-3.41c0.35,0.6,0.83,1.05,1.43,1.36
	c2.69,1.68,3.26,1.17,4.77,2.78c2.82,3.27,2.35,5.99,4.7,8.14c-0.23-2.67-0.23-1.6-0.41-3.74c0.68,0.65,1.43,1.21,2.24,1.69
	c1.05,0.45,2.06,0.97,3.05,1.54c0.29,0.14,0.3,0.17,0.18-0.07c-0.09-0.82-0.32-1.53-0.88-2.27l-0.44-0.73
	c1.85,0.66,3.52,1.01,5.29,2.42c1.77,1.76,2.93,3.97,3.74,6.31c0.55,0.91,1.41,1.35,2.35,1.25c2.25-0.03,3.84,0.08,5.73,0.44
	c2.01,0.38,3.97,1,5.84,1.83c3.48,1.76,8.9,4.67,11.38,4.88c0.73,0.08,1.14-0.02,1.87,0c0.75,0.02,1.16,0.05,1.91,0.11
	C140.6,190.46,141.48,190.56,141.37,190.94z M190.9,137.93l0.59-0.04c1.12-0.69,1.63-1.96,2.2-3.08c0.97,1.87,0.68,3.89-0.44,5.54
	c-0.89,1.31,0.63,3.75-1.47,6.23c-0.61,0.72-1.47,1.27-1.8,2.2c-0.39,1.11,0.18,1.61-0.92,3.23c-0.7,1.03-1.73,1.95-2.9,2.38
	c-0.42,0.19-2.11,0.21-2.94,0.92c-0.18,0.15-0.21,0.31-0.37,0.48c-0.16,0.19-0.41,0.18-0.51,0.73c-0.09,0.69,0.5,0.17,0.88,0.15
	c0.4-0.03,0.62-0.07,1.03-0.07c0.47,0,0.79-0.15,1.21,0.07c0.36,0.17,0.57,0.28,0.29,0.77c-0.15,0.3-0.41,0.33-0.66,0.55
	c-1.92,1.53-2.1,3.31-2.57,5.01c-0.76,2.73-0.74,3.3-4.4,5.51c1.34,0.87,1.63,0.73,1.54,1.21c-0.13,0.67-0.93,0.22-1.27,0.66
	c-0.72,0.91-1.66-0.06-2.53,0.89c-0.5,0.56-1.67,1.31-2.46,1.54c-1.51,0.44-1.32-0.05-1.96,0.97c-0.33,0.51-0.2,2.07-1.21,2.93
	c-0.53,1.16-2,0.25-2.66,1.06c-1.2,1.48-2.3,1.88-3.61,1.91c-2.87,0.07-2.34-1.16-4.15-1c-0.39,0.04-1-0.24-1.74,0.74
	c-0.83,1.1-1.15,0.25-1.86,1.35c-0.56,0.85-1.15,2.23-1.69,2.49c-1.7,0.42-2.02-0.09-2.65,0.37c-0.49,0.36-0.17-0.17-1.97,1.15
	c-0.43,0.32-1.21,0.19-1.7-0.28c-0.85-0.22-0.98,0.72-2.3,0.88c-1.16,0.14-2.13-0.45-3.02,0.37c-1.29-0.04-1.85-0.11-2.9-0.11
	c-2.07,0-3.03-0.02-5.1,0.04c-3.19,0.48-4.72,1.6-7.71,2.71c-4.04,1.5-5.93,2.47-9.8,4.4c0,0-1.31,0.38-2.17,0.59
	c-0.37,0.16-0.66,0.16-1.03,0c-0.91-0.4,0.59-2.38,0.73-2.42c0.92-0.23,1.59-0.53,2.57-0.95c1.71-0.75,2.57-1.4,4.18-2.35
	c1.89-1.11,2.73-2.15,4.77-2.93c1.59-0.61,2.59-0.62,4.26-0.95c1.43-0.29,2.27-0.28,3.67-0.66c0.64-0.17,1.03-0.21,1.62-0.51
	c0.68-0.36,1.04-0.66,1.54-1.25c0.52-0.6,0.62-1.08,1.03-1.76c0.45-0.75,0.59-1.25,1.17-1.9c0.94-1.05,1.95-1.07,3.09-1.91
	c1.02-0.75,1.26-1.72,2.46-2.09c1.08-0.33,1.8,0.46,2.9,0.18c1-0.25,1.26-1.21,2.28-1.32c1.12-0.12,1.81,0.31,2.72,0.99
	c0.58,0.43,0.58,1.09,1.25,1.36c1.39,0.55,2.46-1.06,2.83-2.6c0.45-1.87,1.1-0.94,1.8-1.54c0.22-0.98,0.65-1.87,1.29-2.68
	c0.27-0.36,0.7-0.92,0.7-0.92c0.41-0.82,0.11-1.12,0.62-1.83c0.59-0.81,0.73-0.75,1.62-1.21c0.58-0.3,1-0.89,1.47-1.32
	c0.81-0.75,0.88-1.35,0.88-2.46l0.26-0.04c0.74,0.29,1.08,0.68,1.47,1.36c0.39-1.29,1.39-1.37,2.42-2.27
	c1.23-1.07,1.62-2.09,1.62-3.7c0-0.59,0.18-0.33,0.18-0.92c0-0.06,0.18-0.85,0.18-0.92c0.77,0.14,1.98,1.21,2.13,2.2
	c0.35-0.75,0.83-1.25,1.47-1.5c-0.66-6.45,1.51-7.44,1.69-9.05c0.42-3.72-0.59-4.44,1.17-6.05c0,0,0.15-1.17,0.7-1.83
	c0.47-0.56,0.07-1.35,0.44-2.09c0.35-0.71,1.15-0.78,1.32-1.54c0.22-0.99,0.62-1.8,1.1-3.52c0.96-0.21,1.65,0.24,2.06,1.36l0.18-1.1
	c-3.13-2.57-2.82-7.39-2.36-8.44c0.84-1.93-1.58-3.32-1.49-5.45c0.08-2.01,0.88-2,0.59-5.94c1.24-0.51,1.47,0.88,1.58-0.12
	c0.08-0.74-0.37-0.84-0.87-1.19c-0.63-0.46-1.12-0.96-1.54-1.63c-0.84-1.35-0.77-3.1-0.05-4.49c-0.09-1.2-0.39-1.41-1.58-2.37
	c-0.89-0.72-0.98-0.71-1.27-2.73c-0.14-1.02,0.3-0.85,0.2-3.08c-0.03-0.81-0.9-2.29-1.45-2.02c-0.57,0.28-0.96-0.55-1.3-1.02
	c-0.84-1.17-0.97-1.37-2.75-1.76c-0.88-0.19-1.9-0.64-2.36-1.3c-1-1.46-0.45-2.8-0.58-3.14c-0.28-0.72-0.69-0.26-1.58-1.25
	c-1.12-1.24-0.46-1.75-1.32-1.54c-0.62,0.15-2.76-0.48-3.05-0.61c-1.49-0.57-0.75-1.37-2.34-2.47c-2.5-0.08-2.86-0.13-4.06-1.15
	c-0.9-0.77-0.54-1.14-1.1-1.42c-0.59-0.29-1.12-0.21-2.04-0.73c-0.32-0.39-0.38-1.18-0.22-1.36c0.33-0.36,0.58-0.14,1.17-0.48
	l0.11-0.18c-0.29-1.13-2.91,0.07-4.89-1.2c-1.4-0.9-2.58-2.9-3.26-4.37l0.11-0.44c0.3-0.22,0.65-0.32,1.03-0.29l-0.29-0.44
	c-0.93,0.12-2,0.04-2.87-0.31c-0.87-0.36-0.67-0.44-1.12-0.58c-1.01-0.32-0.95,0.04-2.09-0.36c-2.04-0.73-3.97-3.68-3.25-5.86
	c2.28,0.17,2.39-0.34,3.78-0.99c1.43-0.67,1.94-0.99,3.52,0.08c2,1.36,2.35,0.74,3.53,0.86c3.08-0.4,2.19,1.38,4.39,2.77
	c1.28,0.81,2.64,0.23,3.87,0.72c0.22,0.09,0.74,0.94,1.69,0.89c0.47-0.03,0.56,0.57,2.03,0.38c1.57-0.2,2.13,1.01,3.02,2.19
	c0.27,0.36,2.3,2.66,3.1,2.52l1.03-1.17c2.33,1.5,0.05,4.21,2.94,5.39c0.35-0.57,0.61-1.14,1.18-1.61c0,0.68-0.04,0.69-0.22,0.99
	c-0.18,2.6,2.13,2.32,2.42,5.57c-1.13,2.87,2.3,3.57,1.72,5.28c0.69,2.26,2.56,1.7,3.49,4.66c0.54-1.09,1.25-1.26,1.91-2.31
	c1.17,1.42,3.04,3.25,3.47,4.59c0.57,1.75,0.01,3.73-0.02,5.53l0.18,0.22l0.44-0.07c0.42-0.34,0.83-0.68,1.25-1.02
	c1.59,0.09,2.57,2.56,1.14,3.85c-1.1,1.17-1.01,1.91,0.15,3.06c0.9,0.9,1.77,1.79,2.13,3.09c0.49,1.79-0.44,2.03,0.48,4.26
	c0.21,0.18,0.46,0.26,0.73,0.26c0.89-0.44,0.92-1.37,2.06-2.2c0.36-0.38,0.95,0.09,0.66,0.55c-1.49,2.64,1.25,4.06,1.04,6.42
	c0,2.02-0.32,1.91-0.34,2.89c0.12,1.18,1.08,1.42,0.7,2.86c0.2,0.51-0.24,1.6-0.92,2.45c-1.07,1.31-0.75,1.63-1.35,2.1
	c1.17-0.03,2.23-0.16,3.34,0.29l0.29,0.18c-0.27,0.83-0.52,1.93-0.93,2.54c-1.22,1.81-0.88,2.21-1.44,2.78
	c-0.64,0.66-0.43,0.93-1.48,1.7C191.48,134.43,191.69,136.45,190.9,137.93z M102,157h5.88v0.99h-4.81v2.46h4.45v0.94h-4.45v2.74h4.9
	v0.96H102V157z M108.9,163.23c0.02,0.59,0.22,1.08,0.58,1.48c0.37,0.4,0.99,0.59,1.86,0.59c0.81,0,1.42-0.19,1.81-0.57
	c0.4-0.38,0.6-0.83,0.6-1.36c0-0.54-0.19-0.94-0.58-1.19c-0.24-0.16-0.72-0.33-1.43-0.5l-0.65-0.16c-0.29-0.07-0.5-0.15-0.65-0.24
	c-0.25-0.15-0.38-0.36-0.38-0.62c0-0.23,0.1-0.42,0.29-0.57c0.19-0.14,0.48-0.21,0.85-0.21c0.56,0,0.95,0.13,1.18,0.39
	c0.14,0.18,0.22,0.39,0.24,0.61h0.93c0.01-0.38-0.11-0.74-0.36-1.07c-0.39-0.52-1.03-0.78-1.91-0.78c-0.68,0-1.22,0.17-1.62,0.52
	c-0.4,0.35-0.6,0.8-0.6,1.35c0,0.47,0.21,0.84,0.64,1.11c0.24,0.15,0.61,0.29,1.11,0.42l0.79,0.2c0.42,0.1,0.7,0.2,0.85,0.28
	c0.22,0.13,0.33,0.32,0.33,0.58c0,0.33-0.14,0.58-0.42,0.74c-0.28,0.16-0.6,0.24-0.97,0.24c-0.61,0-1.05-0.16-1.29-0.48
	c-0.14-0.18-0.22-0.43-0.25-0.76H108.9z M115.07,159.19h-0.8V160h0.8v3.9c0,0.38,0.08,0.69,0.25,0.92c0.17,0.24,0.48,0.35,0.94,0.35
	c0.14,0,0.27-0.01,0.39-0.02c0.12-0.02,0.24-0.04,0.36-0.07v-0.78c-0.07,0.01-0.14,0.01-0.19,0.02h-0.15
	c-0.18,0-0.31-0.02-0.38-0.06c-0.14-0.07-0.21-0.21-0.21-0.41V160h0.94v-0.81h-0.94v-1.65h-1V159.19z M118.24,165.08h1.15v-1.2
	h-1.15V165.08z M126.45,159.5v5.58h1.05v-7.85h-0.78c-0.14,0.61-0.35,1-0.63,1.16c-0.28,0.16-0.78,0.28-1.49,0.35v0.76H126.45z
	 M130.27,163.18c0,0.61,0.2,1.12,0.6,1.52c0.4,0.4,0.98,0.61,1.75,0.61c1.14,0,1.96-0.62,2.44-1.86c0.29-0.74,0.43-1.6,0.43-2.56
	c0-0.86-0.12-1.57-0.36-2.14c-0.44-1.04-1.23-1.55-2.37-1.55c-0.85,0-1.49,0.27-1.93,0.82c-0.44,0.54-0.65,1.17-0.65,1.89
	c0,0.75,0.22,1.35,0.66,1.83c0.44,0.47,1.04,0.71,1.8,0.71c0.37,0,0.72-0.07,1.04-0.21c0.32-0.14,0.6-0.39,0.82-0.74
	c-0.14,1.21-0.37,2.01-0.71,2.41c-0.33,0.39-0.74,0.59-1.21,0.59c-0.25,0-0.48-0.05-0.68-0.16c-0.39-0.21-0.6-0.59-0.63-1.13H130.27
	z M133.84,161.17c-0.32,0.26-0.68,0.39-1.07,0.39c-0.54,0-0.94-0.15-1.19-0.45c-0.25-0.3-0.37-0.71-0.37-1.23
	c0-0.54,0.14-0.98,0.42-1.3c0.29-0.33,0.67-0.49,1.15-0.49c0.45,0,0.82,0.14,1.11,0.43c0.29,0.28,0.44,0.71,0.44,1.29
	C134.33,160.46,134.16,160.91,133.84,161.17 M142.69,157.33v1h4.35c-0.55,0.63-1.08,1.39-1.58,2.26c-0.85,1.49-1.4,2.99-1.65,4.49
	h1.09c0.17-0.81,0.31-1.39,0.41-1.76c0.16-0.56,0.41-1.19,0.73-1.88c0.32-0.7,0.69-1.36,1.11-1.97c0.42-0.61,0.76-1.04,1.01-1.28
	v-0.86H142.69z M137.8,164.15c0.11-0.18,0.25-0.36,0.42-0.54s0.55-0.52,1.15-1.01c0.71-0.6,1.22-1.08,1.53-1.42
	c0.31-0.34,0.53-0.67,0.66-0.98c0.13-0.31,0.2-0.63,0.2-0.95c0-0.63-0.23-1.17-0.68-1.6c-0.45-0.43-1.06-0.64-1.84-0.64
	c-0.77,0-1.38,0.2-1.83,0.6c-0.46,0.4-0.72,0.98-0.79,1.74l1.02,0.1c0-0.51,0.15-0.9,0.44-1.19c0.29-0.29,0.67-0.43,1.15-0.43
	c0.45,0,0.82,0.13,1.1,0.4c0.28,0.27,0.42,0.6,0.42,0.99c0,0.37-0.15,0.77-0.46,1.19c-0.31,0.42-0.9,0.99-1.78,1.71
	c-0.56,0.46-1,0.87-1.3,1.22c-0.3,0.35-0.52,0.71-0.65,1.07c-0.08,0.22-0.12,0.45-0.12,0.69h5.34v-0.95H137.8z M171.68,99.66
	c0,0-34.48,0-35.33,0c-0.26-0.81-10.92-33.71-10.92-33.71s-10.66,32.9-10.92,33.71H79.17c0,0,27.9,20.33,28.58,20.83
	c-0.26,0.8-10.92,33.71-10.92,33.71s27.9-20.33,28.59-20.83c0.69,0.5,28.59,20.83,28.59,20.83s-10.66-32.9-10.92-33.71
	C143.78,119.99,171.68,99.66,171.68,99.66z M166.44,100.85l-39.87,12.21l8.9-12.22c0,0,0,0,0,0S159.5,100.85,166.44,100.85z
	 M125.16,70.67v42.22l-9.81-12.04h0.03C115.38,100.85,123.34,76.27,125.16,70.67z M124.62,113.16l-40.8-12.31h30.77L124.62,113.16z
	 M109.17,120.03c0,0-0.04-0.03-0.1-0.07l15.78-5.71l-25.26,35.33C101.73,142.98,109.17,120.03,109.17,120.03z M151.57,150.52
	l-25.52-36.25l15.74,6.07C142.72,123.21,150.08,145.94,151.57,150.52z"/>
<path fill="#6F263D" d="M125.22,7.02C60.11,7.02,7.15,59.99,7.15,125.1c0,65.11,52.97,118.07,118.07,118.07
	c65.11,0,118.08-52.97,118.08-118.07C243.3,59.99,190.33,7.02,125.22,7.02z M125.83,201.88c-43.19,0-78.33-34.91-78.33-77.81
	s35.14-77.81,78.33-77.81c43.19,0,78.33,34.91,78.33,77.81S169.02,201.88,125.83,201.88z"/>
<g>
	<path fill-rule="evenodd" clip-rule="evenodd" fill="#A2AAAD" d="M230.91,159.37c-0.27,0.84-0.76,1.62-1.47,2.32
		c-0.63,0.63-0.98,1.05-1.05,1.25c-0.08,0.25,0,0.53,0.23,0.85c0.14,0.19,0.19,0.34,0.16,0.45c-0.08,0.24-0.36,0.28-0.85,0.12
		c-1.38-0.45-2.7-0.79-3.99-1.03c-0.91-0.17-1.48-0.29-1.69-0.36c-0.47-0.15-0.65-0.37-0.56-0.67c0.07-0.22,0.36-0.34,0.87-0.36
		c1.74-0.06,3.12-0.31,4.14-0.72c1.52-0.62,2.47-1.52,2.86-2.7c0.29-0.88,0.18-1.71-0.33-2.49c-0.5-0.75-1.31-1.31-2.42-1.67
		c-1.35-0.44-2.55-0.34-3.57,0.31c-0.43,0.28-0.83,0.62-1.22,1.02c-0.27,0.29-0.73,0.87-1.37,1.74c-1.19,1.62-2.3,2.71-3.33,3.29
		c-1.52,0.85-3.28,0.96-5.27,0.31c-1.93-0.63-3.42-1.75-4.45-3.37c-1.29-1.99-1.57-4.12-0.83-6.41c0.21-0.63,0.54-1.37,1.02-2.21
		c0.46-0.84,0.93-1.56,1.42-2.16c0.55-0.69,1.25-0.98,2.1-0.89c1.3,0.14,2.86,0.51,4.69,1.11c1.05,0.34,1.5,0.72,1.36,1.15
		c-0.08,0.24-0.3,0.38-0.68,0.41c-0.1,0.01-0.59,0-1.46-0.03c-1.37-0.03-2.54,0.15-3.51,0.53c-0.86,0.33-1.6,0.8-2.23,1.41
		c-0.62,0.61-1.05,1.28-1.29,1.99c-0.31,0.95-0.17,1.87,0.43,2.76c0.54,0.8,1.3,1.36,2.29,1.68c1.2,0.39,2.3,0.34,3.28-0.15
		c0.65-0.33,1.41-1.07,2.3-2.21c0.98-1.23,1.75-2.1,2.33-2.58c1.99-1.7,4.34-2.11,7.02-1.23c1.96,0.64,3.41,1.74,4.36,3.3
		C231.24,155.86,231.48,157.61,230.91,159.37 M111.76,35.64c0.13,1.47,0,2.49-0.39,3.05c-0.2,0.29-0.57,0.57-1.11,0.82
		c-0.37,0.18-0.55,0.39-0.53,0.62c0.03,0.35,0.23,0.5,0.61,0.47c0.19-0.02,0.38-0.04,0.57-0.09c1.31-0.26,2.38-0.43,3.2-0.5
		c1.43-0.12,3.07-0.15,4.92-0.09c1.78,0.06,2.94,0.07,3.47,0.02c1.73-0.15,2.85-0.93,3.36-2.33c0.2-0.53,0.34-1.22,0.44-2.04
		c0.09-0.84,0.1-1.6,0.05-2.28c-0.05-0.57-0.25-0.85-0.59-0.82c-0.14,0.01-0.26,0.1-0.36,0.25c-0.04,0.08-0.15,0.34-0.33,0.8
		c-0.56,1.42-1.16,2.44-1.8,3.05c-1,0.95-2.43,1.51-4.29,1.68c-1.42,0.12-2.36-0.11-2.83-0.71c-0.33-0.43-0.55-1.17-0.64-2.24
		l-0.43-4.89c-0.05-0.54-0.06-0.94-0.04-1.22c0.01-0.3,0.12-0.54,0.31-0.71c0.28-0.27,0.87-0.44,1.76-0.52
		c1.57-0.14,2.66,0.13,3.27,0.82c0.33,0.36,0.64,1.02,0.92,1.98c0.13,0.46,0.34,0.68,0.62,0.65c0.3-0.03,0.43-0.3,0.39-0.83
		c-0.02-0.23-0.05-0.48-0.1-0.77c-0.2-1.32-0.31-2.19-0.35-2.6c-0.06-0.65-0.09-1.21-0.1-1.69c-0.02-1.3-0.04-2.03-0.05-2.2
		c-0.05-0.56-0.22-0.83-0.51-0.8c-0.23,0.02-0.39,0.23-0.48,0.64c-0.16,0.69-0.26,1.14-0.33,1.36c-0.21,0.66-0.52,1.13-0.93,1.4
		c-0.46,0.32-1.22,0.52-2.27,0.61c-1.08,0.09-1.78-0.03-2.1-0.38c-0.27-0.3-0.45-0.95-0.54-1.96l-0.39-4.54
		c-0.08-0.88-0.03-1.49,0.15-1.82c0.22-0.43,0.7-0.67,1.45-0.74c1.96-0.17,3.43-0.17,4.39,0.01c1.03,0.17,1.77,0.94,2.24,2.29
		c0.18,0.53,0.29,0.81,0.32,0.86c0.11,0.23,0.27,0.34,0.49,0.32c0.35-0.03,0.5-0.29,0.45-0.78c-0.02-0.18-0.06-0.46-0.12-0.84
		c-0.09-0.53-0.16-1.1-0.21-1.7c-0.02-0.23-0.04-0.46-0.06-0.7c-0.02-0.33-0.03-0.5-0.03-0.54c-0.03-0.33-0.08-0.58-0.16-0.75
		c-0.12-0.29-0.37-0.42-0.75-0.39c-0.17,0.02-0.33,0.04-0.48,0.06c-1.07,0.23-2.43,0.42-4.07,0.57l-6.9,0.61
		c-0.5,0.06-1.32,0.07-2.47,0.04c-0.32-0.01-0.57,0-0.77,0.01c-0.39,0.03-0.58,0.23-0.55,0.59c0.03,0.3,0.21,0.48,0.54,0.55
		c0.64,0.11,1.06,0.21,1.26,0.29c0.59,0.24,1,0.59,1.21,1.07c0.17,0.37,0.29,1.06,0.38,2.08L111.76,35.64 M41.83,160.81
		c0.27,0.08,0.72,0.26,1.35,0.51c0.62,0.25,1.07,0.44,1.33,0.57c0.86,0.43,1.64,1.01,2.34,1.72c0.29,0.31,0.56,0.41,0.82,0.32
		c0.33-0.12,0.41-0.39,0.26-0.81c-0.1-0.27-0.23-0.6-0.42-0.99c-0.58-1.21-0.97-2.09-1.17-2.65c-0.27-0.75-0.5-1.57-0.7-2.46
		c-0.09-0.38-0.17-0.67-0.24-0.87c-0.15-0.42-0.41-0.57-0.77-0.43c-0.26,0.09-0.38,0.33-0.36,0.7c0.05,0.77,0.02,1.29-0.08,1.56
		c-0.13,0.34-0.42,0.59-0.87,0.76c-0.61,0.22-1.45,0.19-2.51-0.09l-5.03-1.34c-0.32-0.08-0.5-0.18-0.55-0.3
		c-0.06-0.15,0.02-0.35,0.23-0.59l4.03-4.63c0.65-0.76,1.16-1.2,1.52-1.33c0.53-0.19,0.96,0.03,1.3,0.68
		c0.28,0.53,0.57,0.74,0.87,0.62c0.37-0.14,0.48-0.43,0.31-0.88c-0.1-0.28-0.21-0.55-0.33-0.81c-0.7-1.5-1.18-2.61-1.44-3.33
		c-0.38-1.05-0.72-2.17-1.02-3.34c-0.11-0.46-0.21-0.8-0.3-1.04c-0.13-0.36-0.37-0.48-0.71-0.36c-0.26,0.09-0.39,0.33-0.39,0.7
		c0.01,0.79-0.03,1.39-0.11,1.81c-0.18,0.84-0.53,1.6-1.05,2.25l-5.83,7.45l-0.52,0.71c-0.13,0.17-0.28,0.28-0.46,0.35
		c-0.19,0.07-0.56,0.03-1.11-0.12l-8.82-2.28c-0.94-0.25-1.65-0.59-2.12-1.05c-0.34-0.34-0.53-0.53-0.57-0.57
		c-0.2-0.14-0.41-0.17-0.62-0.1c-0.32,0.12-0.42,0.33-0.3,0.66c0.06,0.16,0.15,0.35,0.27,0.57c0.42,0.76,0.74,1.46,0.97,2.1
		c0.14,0.37,0.26,0.81,0.37,1.3c0.21,0.88,0.33,1.39,0.39,1.53c0.14,0.38,0.38,0.51,0.73,0.38c0.2-0.07,0.32-0.2,0.35-0.39
		c0.01-0.11-0.02-0.39-0.08-0.85c-0.11-0.65,0.09-1.08,0.61-1.27c0.35-0.13,0.82-0.16,1.41-0.11c0.49,0.04,1.22,0.16,2.21,0.35
		l3.34,0.64c0.99,0.19,1.53,0.43,1.64,0.72c0.06,0.18,0.01,0.39-0.16,0.61c-0.1,0.14-0.31,0.39-0.63,0.73l-3.47,3.84
		c-0.59,0.66-1.09,1.06-1.51,1.22c-0.5,0.18-0.91-0.03-1.22-0.64c-0.24-0.5-0.4-0.79-0.47-0.87c-0.16-0.18-0.35-0.23-0.59-0.14
		c-0.37,0.14-0.48,0.43-0.31,0.88c0.07,0.2,0.19,0.48,0.36,0.83c0.71,1.57,1.23,2.8,1.55,3.68c0.26,0.72,0.47,1.38,0.62,1.98
		c0.32,1.19,0.51,1.87,0.57,2.05c0.17,0.47,0.45,0.63,0.83,0.49c0.27-0.1,0.37-0.36,0.31-0.78c-0.2-1.43,0.12-2.68,0.97-3.74
		l6.5-7.76c0.27-0.36,0.49-0.57,0.65-0.63c0.16-0.06,0.44-0.02,0.85,0.1L41.83,160.81"/>
	<path fill-rule="evenodd" clip-rule="evenodd" fill="#A2AAAD" d="M31.83,131.5l0.46,5.27c0.08,0.94,0.2,1.5,0.34,1.67
		c0.26,0.27,1.06,0.56,2.38,0.85c1.09,0.23,2,0.32,2.72,0.25c0.48-0.04,0.83-0.24,1.05-0.6c0.16-0.27,0.33-0.71,0.52-1.32
		c0.1-0.34,0.28-0.51,0.53-0.54c0.31-0.03,0.48,0.13,0.51,0.48c0.02,0.21,0.01,0.78-0.03,1.71c-0.02,0.33-0.01,0.68,0.02,1.06
		c0.04,0.45,0.17,1.16,0.4,2.15c0.04,0.19,0.07,0.36,0.08,0.51c0.03,0.38-0.11,0.58-0.43,0.61c-0.2,0.02-0.39-0.06-0.58-0.24
		c-0.04-0.04-0.18-0.22-0.43-0.56c-0.24-0.32-0.54-0.57-0.88-0.75c-0.24-0.12-0.66-0.27-1.26-0.44l-21.62-6.13
		c-0.47-0.13-0.72-0.36-0.74-0.67c-0.02-0.29,0.18-0.53,0.62-0.75l20.67-10.07c0.51-0.25,0.87-0.49,1.09-0.71
		c0.23-0.22,0.46-0.57,0.68-1.03c0.15-0.29,0.32-0.44,0.54-0.46c0.32-0.03,0.5,0.12,0.52,0.43c0.01,0.13,0.01,0.29,0.01,0.48
		c-0.03,1.3,0,2.49,0.09,3.55c0.08,0.92,0.22,1.8,0.41,2.64c0.08,0.35,0.13,0.65,0.15,0.89c0.03,0.37-0.12,0.56-0.47,0.59
		c-0.24,0.02-0.43-0.07-0.58-0.29c-0.04-0.07-0.14-0.27-0.29-0.62c-0.17-0.39-0.36-0.67-0.6-0.82c-0.27-0.18-0.67-0.25-1.22-0.2
		c-0.86,0.08-2.03,0.47-3.52,1.18c-0.58,0.28-0.93,0.53-1.05,0.75C31.82,130.59,31.79,130.96,31.83,131.5 M30.51,136.99l-0.41-4.69
		c-0.06-0.66-0.22-0.98-0.5-0.95c-0.2,0.02-0.47,0.1-0.79,0.25l-6.3,3.09c-0.46,0.23-0.68,0.43-0.66,0.61
		c0.02,0.19,0.27,0.36,0.76,0.5l6.8,2.01c0.31,0.1,0.55,0.14,0.71,0.12C30.43,137.9,30.56,137.59,30.51,136.99"/>
	<path fill="#A2AAAD" d="M124.11,221.82c0-1.24,1-2.25,2.24-2.25s2.24,1.01,2.24,2.25c0,1.24-1,2.25-2.24,2.25
		S124.11,223.07,124.11,221.82 M60.48,186.63c0.65-0.6,1.15-0.96,1.48-1.1c0.41-0.16,0.93-0.08,1.58,0.22
		c0.62,0.3,0.96,0.45,1.02,0.47c0.21,0.07,0.39,0.03,0.54-0.11c0.25-0.24,0.26-0.49,0.02-0.75c-0.18-0.19-0.46-0.45-0.83-0.76
		c-0.77-0.67-1.54-1.41-2.29-2.23c-0.62-0.66-1.31-1.48-2.09-2.46c-0.51-0.65-0.84-1.06-1-1.24c-0.37-0.4-0.69-0.47-0.96-0.21
		c-0.23,0.21-0.2,0.55,0.09,1.02c0.37,0.61,0.63,1.1,0.77,1.46c0.23,0.67,0.16,1.3-0.21,1.91c-0.32,0.52-0.93,1.21-1.83,2.07
		l-11.02,10.31c-0.5,0.47-0.91,0.65-1.23,0.55c-0.34-0.1-0.79-0.45-1.34-1.05c-1.26-1.36-1.86-2.48-1.8-3.36
		c0.06-0.74,0.53-1.7,1.4-2.88c0.3-0.4,0.35-0.71,0.15-0.92c-0.17-0.19-0.39-0.22-0.66-0.1c-0.23,0.1-0.56,0.36-1,0.77
		c-1.09,1.02-1.94,1.99-2.55,2.91c-0.47,0.71-0.52,1.27-0.14,1.67c0.1,0.11,0.25,0.25,0.43,0.41c0.88,0.75,1.85,1.7,2.92,2.85
		l5.69,6.12c0.48,0.5,1.07,1.2,1.76,2.1c0.34,0.47,0.54,0.74,0.6,0.8c0.14,0.15,0.28,0.24,0.44,0.26c0.21,0.03,0.52-0.09,0.94-0.36
		c0.46-0.3,1.13-0.79,2.03-1.48c0.89-0.68,1.5-1.17,1.83-1.49c0.42-0.39,0.5-0.73,0.23-1.01c-0.2-0.22-0.51-0.21-0.92,0.01
		c-0.83,0.44-1.4,0.72-1.71,0.82c-0.7,0.25-1.35,0.31-1.96,0.18c-0.74-0.16-1.53-0.69-2.37-1.6c-0.75-0.8-0.98-1.44-0.68-1.92
		c0.07-0.12,0.33-0.39,0.79-0.82L60.48,186.63 M51.13,176.64l-12.63,7.91c-0.86,0.54-1.42,0.97-1.68,1.28
		c-0.32,0.41-0.46,0.93-0.4,1.57c0.02,0.22,0.13,0.64,0.32,1.26c0.09,0.33,0.01,0.57-0.24,0.73c-0.31,0.19-0.56,0.12-0.77-0.22
		c-0.1-0.16-0.22-0.39-0.36-0.68c-0.5-1.05-0.88-1.78-1.16-2.2l-3.67-5.89c-0.88-1.39-1.67-2.52-2.36-3.37
		c-0.09-0.12-0.18-0.26-0.27-0.41c-0.2-0.33-0.2-0.61,0-0.85c0.11-0.14,0.31-0.3,0.59-0.48c0.03-0.02,0.19-0.11,0.46-0.27
		c0.2-0.13,0.4-0.25,0.59-0.37c0.51-0.32,0.98-0.63,1.41-0.96c0.31-0.23,0.54-0.39,0.69-0.49c0.41-0.26,0.71-0.25,0.9,0.05
		c0.11,0.18,0.09,0.38-0.06,0.58c-0.02,0.05-0.23,0.28-0.62,0.67c-0.99,1.03-1.34,2.05-1.03,3.04c0.28,0.94,0.94,2.25,1.99,3.93
		c0.4,0.64,0.84,0.96,1.32,0.96c0.37,0.01,0.93-0.23,1.68-0.7l3.85-2.41c0.85-0.53,1.35-0.99,1.49-1.37
		c0.17-0.44-0.04-1.12-0.62-2.05c-0.56-0.9-1.09-1.48-1.58-1.75c-0.43-0.25-0.99-0.31-1.67-0.2c-0.23,0.04-0.68,0.15-1.36,0.33
		c-0.4,0.11-0.66,0.06-0.79-0.14c-0.16-0.25,0.01-0.53,0.48-0.82c0.14-0.09,0.79-0.44,1.93-1.05c0.42-0.23,0.91-0.51,1.45-0.86
		c0.35-0.22,1.07-0.72,2.16-1.5c0.23-0.17,0.45-0.31,0.64-0.43c0.45-0.28,0.75-0.29,0.91-0.03c0.15,0.24,0.05,0.53-0.29,0.85
		c-0.72,0.7-1.17,1.27-1.34,1.72c-0.33,0.86-0.07,1.95,0.76,3.29c0.48,0.76,0.89,1.21,1.26,1.34c0.24,0.09,0.5,0.07,0.77-0.05
		c0.25-0.11,0.61-0.31,1.07-0.59l4.15-2.6c0.9-0.57,1.47-1.09,1.7-1.59c0.32-0.69,0.1-1.64-0.66-2.85
		c-0.99-1.59-2.14-2.62-3.44-3.07c-0.83-0.3-2.01-0.37-3.53-0.23c-0.49,0.05-0.77,0.08-0.86,0.07c-0.18-0.02-0.31-0.09-0.38-0.21
		c-0.18-0.29-0.03-0.59,0.46-0.9c0.58-0.36,1.26-0.7,2.05-0.99c0.78-0.29,1.45-0.47,2.01-0.54c1.48-0.18,2.68,0.47,3.6,1.94
		c0.29,0.46,0.81,1.5,1.56,3.12c0.78,1.68,1.55,3.14,2.31,4.36c0.44,0.7,1.07,1.58,1.89,2.64c0.12,0.15,0.23,0.31,0.34,0.47
		c0.2,0.32,0.15,0.57-0.14,0.76c-0.2,0.13-0.47,0.06-0.79-0.19c-0.47-0.37-0.88-0.57-1.23-0.62
		C53.34,175.51,52.38,175.86,51.13,176.64 M15.21,113.12c0.11-0.88,0.44-1.73,1-2.56c0.5-0.74,0.76-1.22,0.79-1.43
		c0.03-0.26-0.1-0.53-0.39-0.79c-0.17-0.15-0.25-0.29-0.24-0.41c0.03-0.25,0.3-0.35,0.81-0.29c1.44,0.18,2.81,0.26,4.11,0.25
		c0.93-0.01,1.51,0,1.73,0.03c0.49,0.06,0.71,0.24,0.67,0.55c-0.03,0.23-0.29,0.41-0.79,0.52c-1.7,0.4-3.01,0.9-3.92,1.51
		c-1.38,0.9-2.14,1.96-2.29,3.2c-0.11,0.92,0.15,1.71,0.79,2.38c0.63,0.64,1.53,1.04,2.69,1.18c1.41,0.18,2.56-0.16,3.45-0.99
		c0.37-0.36,0.7-0.77,1-1.23c0.21-0.33,0.55-0.99,1.02-1.97c0.86-1.81,1.74-3.1,2.64-3.87c1.33-1.13,3.03-1.57,5.11-1.31
		c2.02,0.25,3.69,1.07,5.01,2.45c1.65,1.7,2.32,3.75,2.03,6.14c-0.08,0.66-0.27,1.45-0.58,2.36c-0.29,0.91-0.62,1.71-0.98,2.39
		c-0.41,0.78-1.04,1.21-1.89,1.28c-1.3,0.11-2.91,0.04-4.82-0.19c-1.09-0.13-1.61-0.43-1.56-0.87c0.03-0.25,0.23-0.43,0.59-0.53
		c0.1-0.03,0.58-0.11,1.44-0.25c1.35-0.23,2.47-0.63,3.34-1.19c0.78-0.49,1.42-1.09,1.92-1.81c0.5-0.72,0.79-1.45,0.88-2.2
		c0.12-0.99-0.19-1.87-0.94-2.63c-0.68-0.68-1.53-1.08-2.56-1.21c-1.26-0.16-2.32,0.1-3.18,0.78c-0.57,0.45-1.19,1.32-1.84,2.61
		c-0.73,1.4-1.32,2.39-1.79,2.99c-1.64,2.05-3.86,2.9-6.66,2.55c-2.04-0.25-3.68-1.05-4.91-2.41
		C15.56,116.63,14.99,114.96,15.21,113.12 M20.73,88.79c0.3-0.83,0.82-1.59,1.55-2.27c0.65-0.61,1.02-1.01,1.09-1.21
		c0.09-0.25,0.02-0.53-0.21-0.86c-0.13-0.19-0.18-0.34-0.14-0.46c0.09-0.24,0.37-0.27,0.85-0.09c1.36,0.5,2.68,0.88,3.95,1.17
		c0.91,0.2,1.47,0.34,1.68,0.42c0.46,0.17,0.64,0.4,0.54,0.68c-0.08,0.22-0.37,0.33-0.88,0.33c-1.74,0-3.13,0.2-4.16,0.58
		c-1.54,0.57-2.53,1.43-2.95,2.6c-0.32,0.87-0.24,1.7,0.24,2.5c0.47,0.77,1.26,1.35,2.36,1.76c1.34,0.49,2.53,0.43,3.58-0.19
		c0.44-0.26,0.86-0.59,1.25-0.97c0.28-0.28,0.76-0.84,1.43-1.69c1.25-1.57,2.39-2.63,3.44-3.17c1.55-0.8,3.31-0.84,5.28-0.12
		c1.91,0.7,3.36,1.87,4.34,3.52c1.22,2.03,1.42,4.17,0.6,6.44c-0.23,0.62-0.59,1.35-1.09,2.17c-0.49,0.82-0.99,1.52-1.49,2.11
		c-0.57,0.67-1.28,0.94-2.13,0.82c-1.29-0.19-2.84-0.61-4.65-1.27c-1.03-0.38-1.47-0.78-1.32-1.2c0.09-0.24,0.32-0.37,0.69-0.38
		c0.1,0,0.59,0.02,1.46,0.08c1.37,0.08,2.55-0.06,3.53-0.41c0.87-0.3,1.63-0.74,2.28-1.33c0.65-0.59,1.1-1.24,1.36-1.95
		c0.34-0.94,0.23-1.86-0.33-2.77c-0.51-0.82-1.25-1.4-2.23-1.76c-1.19-0.43-2.28-0.42-3.28,0.04c-0.66,0.31-1.45,1.02-2.38,2.13
		c-1.02,1.2-1.83,2.03-2.42,2.5c-2.05,1.62-4.41,1.95-7.06,0.98c-1.93-0.7-3.35-1.86-4.24-3.45C20.27,92.28,20.1,90.53,20.73,88.79
		 M30.58,67.74c0.81-1.35,1.91-2.47,3.28-3.34c2.08-1.33,4.33-1.87,6.76-1.64c2.12,0.21,4.15,0.9,6.1,2.07
		c2.83,1.7,4.78,3.78,5.85,6.24c0.87,2,1.16,4.07,0.88,6.21c-0.19,1.56-0.7,3.02-1.51,4.37c-1.45,2.43-3.42,4-5.9,4.71
		c-3.27,0.94-6.72,0.32-10.35-1.87c-3.27-1.97-5.35-4.56-6.24-7.79C28.58,73.46,28.95,70.47,30.58,67.74 M31.33,69.37
		c-0.63,1.06-0.86,2.27-0.67,3.63c0.19,1.36,0.82,2.73,1.89,4.1c0.95,1.21,2.13,2.25,3.56,3.11c1.32,0.8,2.72,1.45,4.18,1.97
		c1.47,0.51,2.81,0.8,4.01,0.88c1.72,0.12,3.19-0.16,4.42-0.85c0.99-0.53,1.75-1.25,2.28-2.14c1.03-1.72,1.14-3.58,0.33-5.58
		c-0.44-1.08-1.16-2.12-2.14-3.13c-0.98-1-2.04-1.85-3.2-2.55c-1.47-0.88-3.13-1.55-4.98-2c-2.69-0.66-4.94-0.63-6.75,0.09
		C32.99,67.41,32.01,68.23,31.33,69.37 M40.55,53.86c0.11-0.11,0.27-0.24,0.5-0.41c0.85-0.64,1.69-1.36,2.52-2.16
		c0.77-0.74,1.49-1.54,2.18-2.38c0.2-0.25,0.38-0.44,0.52-0.58c0.36-0.35,0.66-0.39,0.91-0.13c0.13,0.14,0.16,0.32,0.08,0.55
		c-0.01,0.06-0.15,0.36-0.41,0.9c-0.37,0.78-0.24,1.55,0.39,2.32c0.25,0.3,0.98,1.12,2.22,2.48c1.23,1.34,2.14,2.32,2.74,2.93
		c2.76,2.86,4.85,4.61,6.28,5.24c1.16,0.52,2.46,0.63,3.87,0.33c1.17-0.25,2.19-0.79,3.05-1.63c1.32-1.28,1.95-2.81,1.87-4.59
		c-0.07-1.62-0.89-3.42-2.46-5.42c-0.93-1.18-2.21-2.62-3.84-4.31c-2.31-2.4-4.02-3.79-5.14-4.17c-0.54-0.18-1.06-0.21-1.56-0.1
		c-0.21,0.05-0.56,0.2-1.06,0.46c-0.33,0.17-0.6,0.15-0.81-0.07c-0.25-0.26-0.22-0.54,0.1-0.85c0.1-0.1,0.54-0.45,1.33-1.04
		c0.39-0.3,0.75-0.6,1.06-0.9c0.57-0.55,1.08-1.14,1.53-1.76c0.12-0.17,0.23-0.29,0.31-0.38c0.23-0.22,0.48-0.21,0.72,0.05
		c0.18,0.18,0.21,0.42,0.12,0.71c-0.25,0.77-0.25,1.43-0.02,1.97c0.24,0.54,0.85,1.32,1.84,2.35c0.33,0.33,1.06,1.08,2.2,2.24
		c0.79,0.8,1.5,1.54,2.14,2.2c1.25,1.29,2.23,2.41,2.96,3.34c1.55,1.98,2.39,4.04,2.5,6.18c0.12,2.35-0.84,4.52-2.88,6.49
		c-0.93,0.91-1.97,1.62-3.1,2.13c-1.13,0.51-2.26,0.78-3.38,0.8c-1.44,0.03-2.78-0.26-4-0.88c-0.99-0.49-2.06-1.33-3.2-2.51
		c-1.02-1.05-2.98-3.22-5.91-6.51c-0.47-0.53-0.87-0.97-1.21-1.33c-0.87-0.9-1.61-1.35-2.23-1.37c-0.51-0.02-1.15,0.2-1.91,0.65
		c-0.43,0.26-0.75,0.28-0.96,0.06C40.15,54.5,40.2,54.2,40.55,53.86 M77.72,48.98l-8.12-14.1c-0.31-0.54-0.52-0.86-0.62-0.95
		c-0.39-0.39-1.06-0.32-2.01,0.23c-1.06,0.62-1.76,1.27-2.08,1.95c-0.26,0.57-0.35,1.22-0.26,1.96c0.04,0.33,0.17,0.94,0.42,1.86
		c0.12,0.45,0.06,0.76-0.2,0.9c-0.33,0.19-0.64,0.04-0.93-0.46c-0.23-0.39-0.57-1.1-1.03-2.13c-0.47-1.03-0.79-1.8-0.98-2.32
		c-0.17-0.47-0.21-0.8-0.14-1c0.06-0.14,0.18-0.27,0.35-0.37c0.07-0.04,0.37-0.18,0.91-0.4c1.03-0.47,1.84-0.89,2.44-1.25l7.22-4.18
		c1.36-0.78,2.5-1.52,3.43-2.21c0.2-0.14,0.37-0.25,0.5-0.33c0.48-0.28,1.02-0.11,1.6,0.51c0.75,0.8,1.5,1.84,2.25,3.14
		c0.3,0.52,0.47,0.9,0.52,1.15c0.06,0.29-0.02,0.49-0.24,0.62c-0.25,0.14-0.53,0.02-0.85-0.36c-0.95-1.11-1.77-1.78-2.48-2.01
		c-0.84-0.26-2.06,0.07-3.67,1c-0.7,0.41-1.14,0.77-1.32,1.08c-0.17,0.29-0.09,0.74,0.25,1.33l7.53,13.09
		c0.63,1.08,1.16,1.83,1.6,2.25c0.51,0.49,1.11,0.71,1.81,0.63c0.38-0.06,0.91-0.19,1.59-0.42c0.52-0.18,0.86-0.13,1.01,0.14
		c0.19,0.32,0.04,0.62-0.42,0.89c-0.2,0.12-0.68,0.35-1.43,0.7c-1.12,0.54-2.07,1.04-2.86,1.49c-0.96,0.56-1.85,1.14-2.68,1.74
		c-0.38,0.29-0.69,0.51-0.92,0.64c-0.31,0.18-0.55,0.12-0.72-0.18c-0.1-0.18-0.1-0.36,0.02-0.55c0.03-0.06,0.25-0.35,0.68-0.89
		c0.44-0.56,0.63-1.06,0.57-1.49C78.4,50.32,78.15,49.75,77.72,48.98 M89.87,42.23l-5.16-15.91c-0.25-0.74-0.53-1.19-0.85-1.35
		c-0.31-0.17-0.91-0.24-1.79-0.19c-0.4,0.02-0.66,0-0.79-0.05c-0.18-0.07-0.3-0.19-0.36-0.37c-0.1-0.32,0.02-0.53,0.35-0.65
		c0.24-0.08,0.58-0.16,1.02-0.26c0.99-0.19,1.97-0.45,2.96-0.78c0.89-0.29,2-0.73,3.33-1.31c0.29-0.12,0.53-0.21,0.71-0.27
		c0.38-0.12,0.62-0.01,0.73,0.33c0.08,0.25,0.03,0.45-0.14,0.59c-0.04,0.02-0.28,0.17-0.74,0.43c-0.48,0.29-0.8,0.61-0.94,0.97
		c-0.17,0.41-0.14,0.98,0.1,1.73l2,6.18c0.11,0.33,0.19,0.52,0.27,0.58c0.08,0.05,0.25,0.03,0.53-0.06l8.03-2.62
		c0.3-0.1,0.47-0.2,0.5-0.3c0.02-0.07-0.02-0.27-0.13-0.6l-1.86-5.73c-0.31-0.92-0.75-1.53-1.31-1.82c-0.41-0.19-0.9-0.26-1.49-0.19
		c-0.47,0.05-0.75,0.06-0.86,0.03c-0.18-0.06-0.3-0.17-0.35-0.36c-0.11-0.34,0-0.57,0.33-0.67c0.24-0.08,0.58-0.16,1.01-0.25
		c0.95-0.18,2.08-0.49,3.38-0.91c1.07-0.35,2.04-0.74,2.91-1.16c0.29-0.13,0.52-0.23,0.69-0.28c0.35-0.11,0.58,0,0.68,0.33
		c0.07,0.22,0.03,0.4-0.12,0.55c-0.07,0.06-0.23,0.16-0.49,0.31c-0.56,0.29-0.91,0.6-1.05,0.91c-0.2,0.42-0.18,0.99,0.06,1.72
		l4.98,15.38c0.36,1.07,0.73,1.79,1.13,2.17c0.64,0.59,1.67,0.78,3.08,0.56c0.3-0.03,0.49,0.08,0.58,0.34c0.13,0.4,0,0.66-0.4,0.79
		c-0.29,0.09-1.07,0.29-2.35,0.57c-0.5,0.11-1.15,0.3-1.95,0.56c-1.22,0.4-2.32,0.83-3.32,1.29c-0.24,0.12-0.44,0.2-0.61,0.25
		c-0.32,0.1-0.54-0.02-0.65-0.37c-0.09-0.27,0-0.5,0.27-0.69c0.52-0.37,0.87-0.7,1.04-0.98c0.27-0.49,0.27-1.16,0.01-2.01
		l-2.35-7.24c-0.11-0.35-0.2-0.55-0.25-0.58c-0.09-0.03-0.27,0-0.56,0.09l-8.03,2.62c-0.27,0.09-0.43,0.17-0.46,0.25
		c-0.02,0.1,0.02,0.3,0.12,0.62l2.14,6.61c0.33,1,0.79,1.65,1.36,1.96c0.56,0.31,1.24,0.38,2.04,0.2c0.55-0.12,0.88-0.16,1-0.12
		c0.16,0.04,0.27,0.14,0.33,0.33c0.12,0.38,0.01,0.62-0.33,0.73c-0.2,0.07-0.51,0.14-0.92,0.23c-1.14,0.25-2.32,0.57-3.55,0.97
		c-1.54,0.5-2.62,0.91-3.24,1.23c-0.35,0.18-0.62,0.3-0.81,0.36c-0.37,0.12-0.61,0.01-0.72-0.33c-0.09-0.29,0.01-0.53,0.31-0.73
		c0.67-0.44,1.07-0.88,1.21-1.32C90.26,43.99,90.18,43.23,89.87,42.23 M128.17,35.39l1.74-16.62c0.1-1.01,0.04-1.71-0.21-2.09
		c-0.24-0.41-0.81-0.7-1.7-0.87c-0.38-0.08-0.62-0.16-0.73-0.24c-0.15-0.12-0.22-0.29-0.19-0.51c0.04-0.33,0.25-0.48,0.64-0.44
		c0.14,0.01,0.58,0.09,1.31,0.23c1.2,0.24,2.39,0.41,3.56,0.54c0.43,0.04,1.37,0.07,2.81,0.06c0.64,0,1.29,0.03,1.95,0.1
		c2.17,0.23,3.85,0.82,5.04,1.76c1.68,1.32,2.38,3.3,2.11,5.92c-0.16,1.51-0.64,2.64-1.46,3.39c-0.71,0.65-1.59,1.16-2.64,1.53
		c-0.67,0.23-1.01,0.43-1.03,0.6c-0.01,0.07,0.07,0.2,0.23,0.4c0.32,0.38,0.59,0.79,0.82,1.21c0.33,0.65,0.74,1.76,1.22,3.33
		c0.5,1.59,0.97,2.82,1.41,3.71c0.29,0.57,0.53,0.98,0.73,1.22c0.23,0.27,0.49,0.41,0.8,0.45c0.15,0.02,0.31,0.01,0.49-0.02
		c0.25-0.04,0.45-0.04,0.6-0.03c0.23,0.02,0.33,0.16,0.31,0.41c-0.03,0.25-0.23,0.52-0.61,0.8c-0.91,0.7-1.91,0.99-2.99,0.88
		c-1.14-0.12-2.03-0.55-2.67-1.28c-0.52-0.61-0.94-1.44-1.27-2.5l-1.68-5.6c-0.36-1.21-0.82-2.05-1.38-2.53
		c-0.41-0.36-0.97-0.57-1.68-0.65c-0.43-0.04-0.72,0-0.87,0.14c-0.13,0.12-0.24,0.51-0.31,1.16l-0.56,5.31
		c-0.09,0.81-0.06,1.41,0.07,1.8c0.19,0.59,0.5,1.01,0.92,1.27c0.34,0.23,0.72,0.41,1.12,0.53c0.5,0.16,0.73,0.4,0.69,0.71
		c-0.04,0.38-0.29,0.55-0.76,0.5c-0.17-0.02-0.46-0.07-0.87-0.15c-1.45-0.29-2.59-0.47-3.4-0.56c-0.89-0.09-1.9-0.14-3.04-0.14
		c-0.4,0.01-0.72,0-0.96-0.03c-0.42-0.04-0.6-0.26-0.56-0.64c0.02-0.21,0.12-0.36,0.29-0.44c0.09-0.04,0.33-0.08,0.74-0.14
		C127.38,37.81,128.03,36.97,128.17,35.39 M133.74,18.42l-0.77,7.37c-0.06,0.61,0.05,0.99,0.34,1.14c0.28,0.15,0.89,0.27,1.82,0.37
		c1.53,0.16,2.71,0,3.56-0.49c1.11-0.64,1.76-1.92,1.97-3.85c0.27-2.53-0.39-4.25-1.96-5.16c-0.73-0.43-1.64-0.7-2.74-0.81
		c-0.85-0.09-1.45,0-1.81,0.28C133.94,17.45,133.8,17.83,133.74,18.42 M150.15,35.51l4.2-10.97c0.94-2.58,0.58-4.43-1.09-5.55
		c-0.24-0.19-0.31-0.42-0.22-0.66c0.12-0.31,0.43-0.37,0.92-0.18l4.2,1.62c0.29,0.11,0.48,0.22,0.56,0.33
		c0.06,0.13,0.15,0.41,0.26,0.85l5.9,19.71c0.09,0.3,0.15,0.46,0.19,0.48c0.07,0.03,0.15-0.08,0.23-0.31l3.91-10.04
		c0.52-1.35,0.78-2.41,0.79-3.18c-0.03-1.04-0.62-1.96-1.77-2.76c-0.34-0.22-0.46-0.48-0.34-0.77c0.12-0.32,0.37-0.42,0.73-0.28
		c0.27,0.11,0.79,0.35,1.56,0.74c0.67,0.35,1.2,0.6,1.58,0.74c0.49,0.19,1.2,0.39,2.12,0.61c0.21,0.04,0.39,0.09,0.53,0.14
		c0.36,0.14,0.48,0.38,0.34,0.73c-0.06,0.16-0.17,0.26-0.31,0.3c-0.04,0.01-0.23,0.02-0.58,0.03c-1.05-0.02-2.07,1.25-3.07,3.79
		l-6.9,17.42c-0.09,0.24-0.19,0.38-0.31,0.44c-0.11,0.06-0.27,0.05-0.48-0.03c-0.27-0.1-0.54-0.57-0.78-1.38l-6.44-21.12
		c-0.1-0.29-0.16-0.45-0.2-0.46c-0.08-0.03-0.18,0.12-0.3,0.44l-3.9,10.19c-0.56,1.49-0.83,2.66-0.79,3.51
		c0.03,0.99,0.38,1.75,1.07,2.28c0.4,0.31,0.63,0.5,0.67,0.59c0.12,0.17,0.14,0.36,0.07,0.55c-0.13,0.34-0.39,0.43-0.78,0.28
		c-0.36-0.14-1.07-0.47-2.12-0.99c-0.52-0.26-0.92-0.45-1.2-0.56c-0.64-0.25-1.38-0.46-2.19-0.63c-0.19-0.03-0.33-0.07-0.45-0.11
		c-0.35-0.14-0.46-0.39-0.31-0.76c0.07-0.18,0.19-0.3,0.38-0.35c0.05-0.01,0.28-0.04,0.71-0.1c0.66-0.07,1.28-0.47,1.87-1.22
		C149,38.1,149.58,36.98,150.15,35.51 M186.06,32.33c0.12,0.09,0.28,0.24,0.47,0.44c0.75,0.76,1.58,1.49,2.49,2.2
		c0.84,0.66,1.73,1.27,2.66,1.83c0.27,0.17,0.49,0.31,0.65,0.44c0.39,0.31,0.48,0.6,0.26,0.89c-0.12,0.15-0.29,0.2-0.53,0.16
		c-0.06,0-0.38-0.1-0.94-0.28c-0.82-0.26-1.56-0.02-2.24,0.71c-0.26,0.29-0.97,1.13-2.14,2.55c-1.15,1.41-1.99,2.45-2.51,3.12
		c-2.45,3.14-3.88,5.46-4.31,6.97c-0.35,1.23-0.28,2.53,0.22,3.89c0.41,1.13,1.09,2.06,2.03,2.8c1.45,1.14,3.05,1.54,4.79,1.22
		c1.58-0.29,3.25-1.36,5.01-3.2c1.04-1.09,2.28-2.56,3.72-4.41c2.05-2.63,3.18-4.52,3.4-5.69c0.1-0.56,0.06-1.08-0.12-1.56
		c-0.08-0.2-0.28-0.53-0.6-0.99c-0.21-0.31-0.23-0.57-0.04-0.81c0.22-0.28,0.5-0.29,0.85-0.02c0.11,0.09,0.52,0.48,1.21,1.18
		c0.35,0.35,0.69,0.66,1.04,0.93c0.62,0.49,1.27,0.92,1.95,1.27c0.18,0.1,0.32,0.18,0.42,0.26c0.26,0.2,0.27,0.44,0.05,0.73
		c-0.15,0.2-0.38,0.27-0.69,0.21c-0.8-0.14-1.44-0.05-1.94,0.26c-0.5,0.31-1.19,1.02-2.06,2.15c-0.29,0.37-0.92,1.2-1.91,2.5
		c-0.68,0.9-1.31,1.71-1.88,2.44c-1.1,1.42-2.07,2.55-2.88,3.4c-1.74,1.82-3.66,2.93-5.76,3.34c-2.31,0.45-4.58-0.21-6.81-1.96
		c-1.03-0.8-1.87-1.73-2.53-2.78c-0.66-1.05-1.08-2.14-1.26-3.25c-0.23-1.43-0.13-2.79,0.31-4.1c0.34-1.06,1.02-2.23,2.03-3.52
		c0.9-1.15,2.76-3.41,5.6-6.77c0.46-0.54,0.84-1,1.14-1.39c0.77-0.98,1.11-1.78,1.04-2.4c-0.05-0.51-0.36-1.11-0.91-1.81
		c-0.32-0.39-0.38-0.7-0.19-0.95C185.37,32.02,185.68,32.03,186.06,32.33 M196.65,64.83l9.59-6.74c2.22-1.61,2.95-3.34,2.19-5.21
		c-0.09-0.3-0.03-0.52,0.19-0.67c0.27-0.19,0.56-0.07,0.87,0.36l2.58,3.7c0.18,0.26,0.27,0.45,0.28,0.59
		c-0.02,0.14-0.11,0.42-0.26,0.85l-6.1,19.65c-0.1,0.3-0.13,0.47-0.11,0.51c0.04,0.06,0.17,0.02,0.37-0.13l8.84-6.13
		c1.18-0.83,1.99-1.56,2.43-2.19c0.56-0.88,0.58-1.97,0.07-3.28c-0.16-0.37-0.11-0.65,0.14-0.83c0.29-0.2,0.54-0.14,0.76,0.18
		c0.17,0.24,0.46,0.74,0.89,1.49c0.36,0.67,0.66,1.17,0.89,1.5c0.3,0.43,0.78,1,1.42,1.69c0.15,0.15,0.27,0.29,0.36,0.42
		c0.22,0.32,0.18,0.58-0.12,0.8c-0.14,0.1-0.28,0.12-0.43,0.08c-0.04-0.01-0.2-0.11-0.5-0.3c-0.86-0.61-2.41-0.13-4.66,1.42
		l-15.43,10.58c-0.21,0.14-0.37,0.21-0.51,0.19c-0.12-0.01-0.25-0.11-0.38-0.29c-0.17-0.24-0.13-0.77,0.12-1.58l6.43-21.11
		c0.08-0.3,0.12-0.46,0.09-0.49c-0.05-0.07-0.21,0-0.5,0.2l-8.92,6.26c-1.3,0.92-2.17,1.75-2.61,2.47
		c-0.53,0.83-0.66,1.66-0.38,2.49c0.16,0.48,0.24,0.77,0.23,0.86c0,0.21-0.08,0.37-0.25,0.49c-0.29,0.2-0.56,0.14-0.8-0.2
		c-0.22-0.32-0.62-0.99-1.21-2.01c-0.28-0.51-0.51-0.89-0.69-1.14c-0.39-0.57-0.88-1.15-1.46-1.75c-0.13-0.13-0.24-0.25-0.31-0.35
		c-0.22-0.31-0.16-0.58,0.16-0.8c0.16-0.11,0.33-0.14,0.51-0.08c0.04,0.02,0.25,0.12,0.64,0.32c0.58,0.31,1.33,0.32,2.24,0.04
		C194.25,66.34,195.36,65.74,196.65,64.83 M207.04,85.34l13.51-6.32c0.79-0.37,1.3-0.64,1.52-0.81c0.53-0.37,0.85-0.79,0.96-1.26
		c0.08-0.32,0.03-0.79-0.13-1.42c-0.2-0.71-0.14-1.13,0.16-1.27c0.33-0.15,0.57-0.04,0.75,0.33c0.11,0.23,0.23,0.56,0.38,0.99
		c0.43,1.21,0.88,2.31,1.33,3.28c0.27,0.59,0.73,1.4,1.36,2.42c0.12,0.2,0.25,0.46,0.39,0.76c0.21,0.46,0.15,0.77-0.18,0.93
		c-0.17,0.08-0.35,0.05-0.54-0.1c-0.06-0.05-0.23-0.25-0.5-0.61c-0.45-0.6-1.02-0.84-1.71-0.7c-0.27,0.07-1.02,0.38-2.24,0.93
		l-13.46,6.3c-1.13,0.54-1.83,1.05-2.08,1.53c-0.29,0.51-0.31,1.2-0.06,2.09c0.18,0.61,0.25,1,0.22,1.15
		c-0.04,0.18-0.14,0.3-0.3,0.38c-0.35,0.16-0.63,0-0.85-0.48c-0.07-0.16-0.27-0.67-0.6-1.54c-0.48-1.25-0.9-2.27-1.27-3.07
		c-0.37-0.8-0.86-1.68-1.47-2.65c-0.12-0.19-0.21-0.37-0.29-0.54c-0.16-0.34-0.09-0.58,0.2-0.72c0.27-0.12,0.55-0.03,0.84,0.28
		c0.64,0.7,1.29,1,1.94,0.9C205.3,86.04,206,85.79,207.04,85.34 M208.19,100.56l18.56-13.65c0.7-0.52,1.12-1.01,1.26-1.48
		c0.08-0.26,0.14-0.44,0.19-0.53c0.06-0.13,0.18-0.22,0.34-0.27c0.33-0.09,0.56,0.07,0.67,0.49c0.04,0.15,0.17,0.83,0.38,2.05
		c0.15,0.77,0.25,1.3,0.33,1.59c0.27,1,0.57,1.9,0.9,2.68c0.13,0.32,0.23,0.57,0.27,0.75c0.1,0.39-0.02,0.64-0.36,0.73
		c-0.17,0.05-0.34,0-0.5-0.14c-0.05-0.05-0.19-0.22-0.42-0.52c-0.59-0.77-1.29-1.05-2.1-0.83c-0.45,0.12-0.98,0.39-1.58,0.81
		l-10.68,7.35c-0.98,0.68-1.45,1.13-1.39,1.35c0.04,0.14,0.26,0.25,0.68,0.32c0.08,0.02,0.91,0.14,2.47,0.37l8.2,0.87
		c1.16,0.12,1.98,0.17,2.47,0.16c0.63-0.02,1.26-0.12,1.89-0.29c0.88-0.24,1.46-0.58,1.75-1.02c0.17-0.27,0.3-0.78,0.37-1.54
		c0.04-0.36,0.2-0.58,0.48-0.65c0.36-0.1,0.59,0.05,0.7,0.45c0.06,0.23,0.12,0.51,0.17,0.84c0.18,1.18,0.32,1.96,0.43,2.37
		c0.1,0.39,0.36,1.09,0.78,2.09c0.08,0.2,0.14,0.39,0.19,0.58c0.12,0.45-0.02,0.73-0.41,0.84c-0.21,0.06-0.42-0.05-0.64-0.32
		c-0.35-0.44-0.8-0.78-1.35-1.02c-0.42-0.17-1.06-0.31-1.91-0.42l-21.95-2.65c-0.51-0.06-0.8-0.22-0.87-0.47
		C207.46,101.23,207.69,100.93,208.19,100.56 M215.8,111.6l14.85-1.04c1.02-0.07,1.71-0.19,2.08-0.35c0.48-0.21,0.84-0.61,1.08-1.2
		c0.08-0.2,0.19-0.62,0.31-1.26c0.07-0.33,0.26-0.51,0.56-0.53c0.36-0.02,0.55,0.16,0.58,0.56c0.01,0.19,0.01,0.45,0,0.77
		c-0.05,1.16-0.05,1.98-0.01,2.48l0.48,6.93c0.12,1.65,0.29,3.01,0.5,4.09c0.02,0.15,0.04,0.31,0.05,0.49
		c0.03,0.39-0.1,0.63-0.4,0.75c-0.16,0.07-0.41,0.12-0.75,0.14c-0.04,0-0.21,0.01-0.54,0.02c-0.24,0.02-0.47,0.03-0.7,0.05
		c-0.6,0.04-1.16,0.1-1.7,0.18c-0.38,0.06-0.66,0.09-0.84,0.1c-0.49,0.03-0.75-0.12-0.77-0.47c-0.02-0.21,0.09-0.37,0.33-0.48
		c0.04-0.03,0.33-0.14,0.86-0.31c1.36-0.44,2.13-1.18,2.33-2.2c0.2-0.96,0.23-2.43,0.09-4.4c-0.05-0.75-0.29-1.24-0.71-1.47
		c-0.33-0.18-0.93-0.24-1.81-0.18l-4.53,0.32c-1,0.07-1.66,0.24-1.96,0.51c-0.35,0.31-0.49,1.01-0.41,2.1
		c0.07,1.06,0.26,1.82,0.57,2.29c0.27,0.42,0.73,0.74,1.38,0.96c0.22,0.07,0.67,0.18,1.36,0.35c0.4,0.09,0.61,0.26,0.63,0.49
		c0.02,0.29-0.25,0.46-0.81,0.5c-0.17,0.01-0.9,0.02-2.19,0.02c-0.48,0-1.04,0.03-1.68,0.07c-0.42,0.03-1.29,0.13-2.6,0.31
		c-0.29,0.04-0.54,0.07-0.77,0.08c-0.52,0.04-0.8-0.1-0.82-0.4c-0.02-0.29,0.2-0.49,0.66-0.61c0.96-0.27,1.63-0.57,1.99-0.89
		c0.69-0.6,0.98-1.69,0.87-3.27c-0.06-0.9-0.22-1.49-0.48-1.78c-0.17-0.19-0.4-0.3-0.71-0.32c-0.28-0.02-0.68-0.01-1.22,0.02
		l-4.88,0.34c-1.06,0.08-1.81,0.28-2.24,0.6c-0.6,0.46-0.85,1.4-0.76,2.83c0.13,1.87,0.66,3.31,1.6,4.33
		c0.6,0.65,1.6,1.27,3.01,1.86c0.46,0.18,0.72,0.3,0.8,0.34c0.15,0.1,0.23,0.22,0.24,0.37c0.02,0.35-0.25,0.54-0.82,0.58
		c-0.68,0.05-1.44,0.02-2.27-0.08c-0.82-0.11-1.5-0.26-2.03-0.47c-1.39-0.53-2.15-1.67-2.27-3.41c-0.04-0.54-0.01-1.7,0.08-3.48
		c0.1-1.86,0.1-3.5,0-4.94c-0.06-0.82-0.21-1.9-0.44-3.22c-0.04-0.19-0.06-0.39-0.08-0.58c-0.03-0.38,0.13-0.58,0.48-0.6
		c0.24-0.02,0.44,0.16,0.61,0.54c0.24,0.55,0.51,0.92,0.8,1.13C213.32,111.55,214.33,111.7,215.8,111.6 M215.73,129.51l16.5,2.33
		c1.01,0.14,1.7,0.1,2.08-0.14c0.42-0.23,0.73-0.79,0.92-1.68c0.09-0.38,0.18-0.62,0.27-0.72c0.13-0.15,0.3-0.2,0.51-0.17
		c0.33,0.04,0.47,0.27,0.42,0.66c-0.02,0.14-0.11,0.58-0.27,1.31c-0.28,1.2-0.5,2.38-0.66,3.55c-0.06,0.43-0.11,1.37-0.16,2.82
		c-0.02,0.65-0.07,1.3-0.17,1.95c-0.31,2.17-0.95,3.83-1.93,4.99c-1.38,1.64-3.37,2.27-5.97,1.91c-1.51-0.21-2.62-0.74-3.33-1.58
		c-0.62-0.74-1.1-1.64-1.43-2.7c-0.21-0.68-0.39-1.03-0.56-1.05c-0.07-0.01-0.21,0.06-0.41,0.22c-0.39,0.31-0.8,0.57-1.23,0.78
		c-0.66,0.31-1.78,0.68-3.36,1.1c-1.6,0.44-2.84,0.87-3.75,1.28c-0.58,0.27-1,0.5-1.24,0.69c-0.27,0.22-0.43,0.48-0.47,0.78
		c-0.02,0.15-0.02,0.32,0,0.49c0.02,0.25,0.02,0.45,0,0.6c-0.03,0.23-0.17,0.33-0.42,0.3c-0.25-0.04-0.51-0.25-0.78-0.63
		c-0.66-0.94-0.92-1.95-0.77-3.03c0.16-1.14,0.61-2.02,1.37-2.64c0.62-0.5,1.47-0.89,2.54-1.19l5.65-1.49
		c1.22-0.32,2.07-0.75,2.57-1.29c0.37-0.4,0.6-0.95,0.71-1.66c0.06-0.42,0.02-0.72-0.11-0.88c-0.11-0.14-0.5-0.25-1.15-0.35
		l-5.28-0.74c-0.81-0.11-1.4-0.11-1.79,0.01c-0.59,0.17-1.03,0.47-1.3,0.88c-0.24,0.34-0.43,0.71-0.57,1.11
		c-0.18,0.49-0.42,0.71-0.73,0.67c-0.38-0.05-0.54-0.31-0.47-0.78c0.02-0.17,0.08-0.46,0.18-0.87c0.34-1.45,0.56-2.58,0.68-3.4
		c0.12-0.89,0.21-1.9,0.24-3.04c0.01-0.4,0.03-0.72,0.06-0.96c0.06-0.41,0.28-0.59,0.65-0.54c0.21,0.03,0.36,0.13,0.43,0.31
		c0.04,0.09,0.07,0.33,0.11,0.74C213.36,128.63,214.17,129.31,215.73,129.51 M232.46,135.69l-7.32-1.03
		c-0.6-0.08-0.99,0.02-1.15,0.3c-0.16,0.28-0.31,0.88-0.44,1.81c-0.21,1.52-0.09,2.72,0.37,3.59c0.6,1.14,1.85,1.84,3.76,2.11
		c2.51,0.35,4.25-0.24,5.21-1.78c0.45-0.72,0.75-1.62,0.91-2.71c0.12-0.85,0.05-1.45-0.21-1.82
		C233.41,135.92,233.04,135.77,232.46,135.69 M207.98,162.38l13.28,6.79c0.78,0.4,1.3,0.63,1.58,0.7c0.62,0.19,1.14,0.18,1.58-0.02
		c0.3-0.13,0.64-0.46,1.04-0.98c0.43-0.59,0.8-0.81,1.1-0.66c0.32,0.16,0.39,0.43,0.2,0.79c-0.11,0.23-0.29,0.53-0.54,0.91
		c-0.69,1.09-1.28,2.11-1.76,3.07c-0.29,0.58-0.65,1.44-1.06,2.56c-0.09,0.22-0.21,0.48-0.36,0.78c-0.23,0.45-0.51,0.6-0.84,0.43
		c-0.17-0.09-0.26-0.25-0.25-0.49c0-0.08,0.06-0.34,0.17-0.77c0.19-0.73,0.03-1.32-0.5-1.78c-0.22-0.17-0.92-0.57-2.11-1.2
		l-13.23-6.76c-1.12-0.56-1.95-0.8-2.48-0.7c-0.58,0.08-1.14,0.49-1.68,1.24c-0.37,0.52-0.63,0.81-0.77,0.88
		c-0.16,0.08-0.32,0.08-0.48,0c-0.34-0.18-0.39-0.5-0.15-0.97c0.08-0.15,0.36-0.63,0.84-1.42c0.69-1.15,1.23-2.11,1.63-2.89
		c0.4-0.78,0.79-1.71,1.18-2.8c0.08-0.21,0.16-0.4,0.25-0.56c0.17-0.34,0.4-0.43,0.69-0.29c0.27,0.14,0.37,0.42,0.3,0.84
		c-0.15,0.94,0.01,1.64,0.49,2.09C206.36,161.43,206.99,161.84,207.98,162.38 M201.6,173.02l13.46,9.11
		c0.52,0.35,0.84,0.54,0.97,0.58c0.53,0.18,1.1-0.18,1.71-1.1c0.69-1.02,1.03-1.91,1.02-2.67c-0.01-0.62-0.22-1.25-0.62-1.88
		c-0.17-0.28-0.57-0.77-1.19-1.49c-0.31-0.36-0.38-0.66-0.22-0.9c0.22-0.32,0.56-0.32,1.04,0c0.38,0.25,1,0.74,1.86,1.46
		c0.87,0.72,1.5,1.27,1.89,1.65c0.36,0.35,0.54,0.63,0.56,0.84c0.01,0.16-0.04,0.32-0.15,0.49c-0.05,0.07-0.26,0.32-0.64,0.76
		c-0.72,0.88-1.27,1.61-1.64,2.19l-4.66,6.94c-0.88,1.3-1.58,2.47-2.11,3.5c-0.12,0.22-0.22,0.39-0.3,0.51
		c-0.31,0.47-0.87,0.55-1.66,0.24c-1.02-0.39-2.16-1-3.4-1.84c-0.5-0.33-0.82-0.6-0.97-0.81c-0.18-0.23-0.19-0.45-0.05-0.66
		c0.16-0.24,0.47-0.25,0.93-0.06c1.34,0.58,2.37,0.82,3.11,0.72c0.87-0.14,1.82-0.98,2.86-2.51c0.46-0.68,0.69-1.19,0.72-1.55
		c0.03-0.34-0.24-0.7-0.81-1.08l-12.49-8.45c-1.04-0.69-1.84-1.13-2.42-1.32c-0.67-0.22-1.31-0.15-1.9,0.23
		c-0.32,0.22-0.73,0.57-1.25,1.08c-0.39,0.39-0.71,0.49-0.97,0.32c-0.31-0.21-0.31-0.53-0.01-0.98c0.13-0.2,0.46-0.61,0.98-1.26
		c0.77-0.98,1.41-1.84,1.92-2.6c0.62-0.92,1.17-1.83,1.65-2.74c0.22-0.43,0.4-0.76,0.55-0.98c0.2-0.29,0.44-0.35,0.73-0.15
		c0.17,0.11,0.24,0.28,0.23,0.5c0,0.06-0.07,0.43-0.22,1.1c-0.15,0.7-0.1,1.23,0.14,1.59C200.41,172.11,200.87,172.51,201.6,173.02
		 M189.57,187.68l2.18,2.27c0.52,0.54,1.09,1.01,1.7,1.41c0.54,0.35,1.27,0.73,2.2,1.14l8.18,3.68c0.85,0.37,1.56,0.57,2.1,0.59
		c0.56,0.01,1.15-0.12,1.78-0.37c0.51-0.21,0.84-0.31,1-0.3c0.17,0.01,0.3,0.07,0.42,0.19c0.27,0.27,0.24,0.57-0.08,0.88
		c-0.13,0.13-0.61,0.53-1.44,1.19c-0.61,0.49-1.2,1.01-1.75,1.55c-1.02,0.98-1.83,1.86-2.44,2.61c-0.21,0.28-0.38,0.47-0.51,0.59
		c-0.29,0.28-0.56,0.28-0.83,0c-0.16-0.16-0.21-0.34-0.14-0.52c0.03-0.06,0.12-0.24,0.29-0.53c0.27-0.46,0.36-0.86,0.27-1.19
		c-0.08-0.27-0.25-0.54-0.49-0.8c-0.27-0.29-0.72-0.57-1.33-0.86l-6.66-3.13c-0.62-0.3-1.02-0.36-1.2-0.19
		c-0.12,0.12-0.13,0.37-0.01,0.76c0.09,0.28,0.29,0.77,0.59,1.47l2.04,4.65c0.5,1.15,0.89,1.88,1.18,2.18
		c0.37,0.39,0.81,0.56,1.3,0.51c0.34-0.01,0.79-0.16,1.35-0.43c0.35-0.15,0.61-0.14,0.78,0.04c0.26,0.27,0.24,0.54-0.04,0.82
		c-0.08,0.08-0.49,0.39-1.23,0.94c-0.3,0.23-0.68,0.56-1.12,0.99c-0.41,0.4-0.92,0.99-1.54,1.79c-0.09,0.12-0.2,0.25-0.33,0.37
		c-0.28,0.27-0.54,0.3-0.75,0.08c-0.17-0.17-0.2-0.45-0.11-0.82c0.31-1.2,0.06-2.95-0.76-5.24l-1.92-5.29
		c-0.59-1.65-1.1-2.92-1.54-3.82c-0.37-0.76-0.88-1.47-1.52-2.13l-2.35-2.45c-0.76-0.79-1.46-1.16-2.11-1.11
		c-0.45,0.05-1.2,0.41-2.26,1.09c-0.32,0.19-0.58,0.18-0.79-0.03c-0.25-0.26-0.21-0.55,0.13-0.88c0.06-0.06,0.67-0.59,1.84-1.59
		c0.91-0.78,1.46-1.26,1.66-1.45c0.57-0.55,1.31-1.36,2.23-2.41c0.35-0.4,0.62-0.7,0.82-0.89c0.31-0.3,0.58-0.32,0.83-0.06
		c0.16,0.16,0.2,0.36,0.12,0.59c-0.02,0.08-0.15,0.31-0.39,0.7c-0.33,0.57-0.44,1.13-0.33,1.7
		C188.71,186.55,189.03,187.12,189.57,187.68"/>
</g>
<path fill-rule="evenodd" clip-rule="evenodd" fill="#FFFFFF" d="M119.74,190.9c0.91,0,1.62-0.82,2.46-1.17
	c2-0.87,2.67-1.58,4.66-2.46c1.46-0.64,1.91-0.9,3.45-1.28c1.44-0.36,3.04-0.77,4.37-1.43c0.11-0.33-0.25-0.51-0.59-0.51
	c-0.7,0-2.42,0.33-3.12,0.44c-2.28,0.36-2.76,0.53-4.92,1.28c-1.43,0.5-2.3,1.36-3.6,2.16c-0.7,0.43-1.05,0.74-1.76,1.14
	c-0.62,0.35-1.51,0.75-1.73,1.43C118.97,190.49,119.47,190.9,119.74,190.9"/>
<path fill-rule="evenodd" clip-rule="evenodd" fill="#FFFFFF" d="M153.38,175.72c-0.15,0.25-0.27,0.49-0.56,0.49
	c-0.54,0-0.85-0.02-1.39-0.02l-0.29-0.07h-0.95c-0.83,0-1.25,0.51-2.07,0.51h-0.97c-1.44,0-2.1,0.83-3.39,1.5
	c-0.87,0.46-1.51,0.36-2.42,0.7c-0.5,0.18-0.77,0.39-1.18,0.73c-0.15,0.12-0.2,0.33-0.4,0.33c-0.18,0-0.37-0.11-0.37-0.29
	c0-0.7,0.5-1.04,1.03-1.5c0.57-0.49,0.99-0.68,1.69-0.95c1.51-0.61,1.74-2.49,3.38-2.49c0.61,0,0.94,0.18,1.54,0.18
	c1.58,0,2.28-1.21,3.86-1.21C152.15,173.63,153.07,174.49,153.38,175.72 M155.95,176.31c0,0.74-0.35,1.35-0.85,1.91l-0.88,0.92
	c-0.44,0.29-0.5,0.35-0.99,0.51c-0.62,0.21-1.3,0.19-1.8,0.62c-0.99,0.86-1.34,2.01-2.64,2.05c-1.34,0.06-1.8,1.07-2.97,1.72
	c-1.2,0.66-2.05,0.84-3.42,0.84h-0.93c-0.22,0-0.35-0.07-0.57-0.07h-0.9c-1.28,0-1.98-0.26-3.2-0.66l-0.04-0.44
	c1.29-0.88,2.19-2.1,3.16-3.23c0.94-1.09,2.49-0.23,3.45-1.32c0.96-1.11,2.03-1.41,3.49-1.36c1.48,0.06,2.12-1.17,3.6-1.17
	c0.71,0,1.09,0.26,1.8,0.26c1.29,0,1.87-0.92,3.16-0.92C155.61,175.98,155.95,176.1,155.95,176.31z M153.08,177.88
	c-2.41-0.19-3.5,1.55-5.88,1.91c-1.4,0.21-2.42,0.12-3.49,1.06c-0.67,0.59-1.19,0.81-2.06,1.06c-0.52,0.16-0.97,0.12-1.29,0.59h0.87
	c1.26,0,1.89-0.57,2.98-1.21c1.04-0.61,1.73-0.77,2.9-0.99c0.75-0.14,1.25-0.04,1.91-0.4c0.78-0.43,1.05-1.07,1.91-1.32
	c0.79-0.23,1.27-0.33,2.06-0.55L153.08,177.88z M157.53,178.58c0-0.39-0.49-0.51-0.88-0.51c-1.06,0-1.26,1.12-2.13,1.72
	c-0.93,0.64-1.86,0.29-2.76,0.99c-0.77,0.61-0.95,1.43-1.91,1.65c-0.44,0.1-0.67,0.21-1.1,0.33c-0.39,0.11-0.88,0.17-0.88,0.59
	c0,0.57,0.57,0.92,1.14,0.92c1.19,0,1.63-0.98,2.79-1.25c0.97-0.22,1.71,0.04,2.5-0.59c1.3-1.04,1.44-2.45,2.94-3.19
	C157.23,179.24,157.53,178.94,157.53,178.58 M175.66,170.26c0.66-0.25,1.51-0.15,1.51-0.15c0.3-0.02,0.7-0.03,0.7-0.33
	c0-0.72-1-0.55-1.69-0.73c-0.84-0.23-1.3-0.51-2.18-0.51h-0.93c-0.52,0-0.73,0.37-1.22,0.55c-0.7,0.27-1.16,0.54-1.51,1.21
	c-0.77,1.47-0.96,2.57-2.28,3.56c-1.19,0.89-1.19,2.08-2.39,3.01c-0.66,0.51-1.09,0.85-1.91,0.99c-0.59,0.1-1.4,0.03-1.4,0.62
	c0,0.4,0.45,0.59,0.85,0.59c0.42,0,0.66-0.01,1.08-0.01c1.03,0,1.43-0.74,2.21-1.42c0.47-0.41,0.83-0.54,1.39-0.77
	c0.61-0.25,1.09-0.12,1.58-0.55c0.78-0.69,0.88-1.4,1.32-2.35c0.31-0.67,0.47-1.28,1.17-1.5c0.53-0.16,0.9-0.12,1.4-0.37
	C174.4,171.59,174.6,170.65,175.66,170.26 M165.46,168.32c0.2-0.62,0.4-0.96,0.4-1.61v-1.17c0-0.91,0.84-1.29,0.84-2.2v-0.7
	c0-0.45-0.26-0.95-0.62-1.1c-0.47,1.4-0.98,2.15-2.09,3.11c-0.68,0.59-1.41,0.58-1.91,1.32c-0.6,0.88-0.15,1.96-0.92,2.68
	c-0.47,0.43-0.66,0.72-1.03,1.25c-0.3,0.44-0.55,0.63-0.55,1.17c0,0.19-0.06,0.34,0.07,0.48c0.31,0,0.73-0.16,1.03-0.26
	c0.95-0.33,1.12-0.63,1.5-1.32c0.26-0.47,0.47-0.72,0.96-0.95c0.57-0.29,0.43-0.33,1.07-0.33c0.31,0,0.6,0.11,0.92,0.11
	L165.46,168.32z M171.92,155.12c0,1.97-0.53,3.5-1.87,4.95c-0.81,0.87-1.14,0.89-1.87,1.83c-1.06,1.36-1.65,2.7-1.65,4.4
	c0,0.49,0.04,0.78,0.15,1.25c0.6-0.6,1.06-0.8,1.76-1.28c0.36-0.25,1.03,0.03,1.03-0.4v-1.47v-0.84c0-1.46,0.67-2.21,1.84-3.08
	c0.02,0.06,0.11,0.07,0.11,0.15c0,0.34-0.32,0.43-0.52,0.7c-0.66,0.9-0.84,1.37-0.84,2.49c0,0.37-0.04,0.62-0.04,0.99
	c0,0.65,0.45,1.1,1.1,1.1c1.09,0,2.13-0.82,2.13-1.91c0-0.63-0.18-0.65-0.18-1.28c0-0.79,0.04-1.36,0.04-2.14
	c0-1.03-0.19-1.16-0.19-2.18c0-0.71,0.15-1.13,0.15-1.83c0-0.36-0.25-0.94-0.55-1.14L171.92,155.12z M173.13,166.19
	c0,1.86-2.07,1.83-3.12,3.37c-0.93,1.37-1.08,3.22-2.61,3.89c-1.69,0.74-1.12,2.07-2.68,3.04c-1.62,1.01-3.76,0.96-5.66,0.96h-0.76
	l-1.54-0.15v-0.37c0.57-0.57,1.06-0.6,1.06-1.39c0-0.27,0.44-1.15,0.44-1.43c0-1.4,1.43-1.85,2.75-2.31
	c1.19-0.41,1.01-0.94,1.91-1.83c0.25-0.25,1.04-0.59,1.4-0.59c0.4,0,0.43,0.07,0.83,0.07c2.15,0,2.67-2.9,4.82-2.9
	c0.35,0,0.75-0.07,1.1-0.07c0.66,0,1.29-0.66,1.95-0.66C173.24,165.82,173.13,165.97,173.13,166.19z M169.53,168.35
	c-2.71,1.35-3.56,2.38-5.73,4.33c-1.39,1.25-2.41,1.38-3.82,2.6c-0.43,0.38-1,0.42-1.07,0.99c0.13,0,0.62-0.16,0.74-0.22
	c0.95-0.48,0.96-0.55,1.8-1.06c1.15-0.72,1.88-1.04,2.9-1.94c1.85-1.66,3.12-2.32,4.77-4.14L169.53,168.35z M184.29,157.69
	c-0.39,0.49-1.56,2.09-1.84,2.64c-0.66,1.33-0.48,2.78-1.17,4.07c-0.65,1.21-0.65,1.45-1.65,2.38c-0.14,0.13-1.52,1.04-1.65,1.17
	c-0.37,0.34-1.15,0.48-1.65,0.48c-0.83,0-0.97-0.38-1.8-0.41c-0.47-0.19-0.88-0.37-0.88-0.88c0-0.73,0.62-1.16,0.62-1.9v-0.94
	c0-0.81,0.64-1.32,1.32-1.75c1.18-0.75,1.92-0.63,2.9-1.61c0.98-0.98,1.25-1.98,2.42-2.71c0.73-0.46,1.31-0.48,2.18-0.48h0.75
	C184.02,157.76,184.12,157.71,184.29,157.69z M180.8,161.28c-1.13,0.84-1.57,1.57-2.57,2.57c-0.56,0.56-0.88,0.88-1.54,1.32
	c-0.46,0.3-1.18,0.26-1.18,0.81c0,0.18,0.04,0.4,0.22,0.4c1.06,0,1.39-0.91,2.24-1.54C179.39,163.78,179.81,162.76,180.8,161.28z
	 M191.96,141.26c0,0.44-0.22,1.7-0.22,1.83c0,0.31,0.26,1.18,0.26,1.49c0,1.66-1.5,2.13-2.5,3.46c-0.96,1.29-0.34,2.33-1.06,3.78
	c-0.9,1.8-2.61,1.79-4.59,2.2c-0.89,0.18-1.62,0.92-2.13,1.39l-0.15,0.11c0.08-1.06,0.48-1.62,0.48-2.68c0-1-0.62-1.49-0.62-2.49
	c0-0.29,0.32-0.33,0.52-0.55c0.6-0.69,0.99-1.08,1.36-1.91c0.46-1.02,0.73-1.62,1.25-2.6c0.69-1.28,2.01-1.14,3.23-1.94
	c0.62-0.4,0.7-0.95,1.14-1.54c0.16-0.47,0.45-0.91,0.77-1.28c0.48-0.32,0.99-0.58,1.5-0.84l1.21-0.81c0.08-0.07,0.15-0.09,0.26-0.07
	c0.21,0.03,0.17,0.3,0.18,0.51c0.01,0.26-0.05,0.43-0.22,0.62C192.18,140.66,192.15,140.7,191.96,141.26z M190.09,143.32l-0.07-0.07
	c-0.86,0.49-0.88,1.28-1.58,1.98c-0.47,0.47-1,0.37-1.47,0.84c-0.43,0.43-0.5,0.81-0.73,1.36c-0.39,0.96-0.29,1.67-0.88,2.53
	c-0.48,0.69-0.89,1.02-1.58,1.5c-0.35,0.24-0.81,0.34-0.81,0.77c0,0.25,0.25,0.4,0.5,0.4c1.06,0,1.5-0.91,2.04-1.83
	c0.62-1.05,0.52-1.84,1.06-2.93c0.61-1.21,1.56-1.43,2.46-2.46C189.62,144.72,189.59,144.08,190.09,143.32z M182.58,133.7
	c-0.03,0.32,0.02,1.09-0.04,1.27c-0.13,0.41-0.17,0.94-0.2,1.01c-0.57,1.36-0.95,1.32-1.17,3.08c0,1.99,0.57,2.66,0.7,4.03
	c0.06,0.59,0.05,1.19-0.01,1.78c-0.06,0.29,0.05,0.88-0.01,1.21c-0.08,0.49,0.09,0.87-0.01,1.35c-0.13,0.61-0.27,1.2-0.53,1.68
	c-0.31,0.55-0.3,0.3-0.83,0.73c-0.33-0.14-0.53-0.26-0.89-0.26c-0.44,0-0.47-0.11-0.91-0.11c0,0.79-0.29,1-0.52,1.76
	c-0.31,1.07-0.81,1.98-1.84,2.68c-0.14-0.42-0.22-0.77-0.22-1.21c0-0.74,0.1-1.08,0.13-1.82c0.13-3.27,1.97-3.51,1.97-5.96
	c0-1.37-0.26-1.9,0-3.51c0.18-1.21,0.68-2.35,1.14-3.48c0.33-1.24-0.03-2.32,1.87-2.97c0.17-0.48,0.19-0.74,0.31-1.07
	c0.12-0.33,0.18-0.56,0.24-0.91c0.02-0.15,0.06-0.24,0.15-0.37c0.09-0.12,0.14-0.29,0.29-0.26c0.11,0.03,0.13,0.13,0.19,0.22
	c0.09,0.16,0.13,0.26,0.14,0.44C182.6,133.22,182.61,133.37,182.58,133.7z M180.14,139.76c0,0.77-0.29,2.13-0.29,2.9
	c0,2.22-0.55,2.22-0.55,4.44c0,0.53,0.07,0.73,0.19,1.21l0.22,0.22l0.19-0.22l-0.07-1.98l0.66-3.78
	C180.47,142.03,181.13,137.67,180.14,139.76z M195.6,127.11c-0.71,2.3-1.12,2.99-2.31,4.62c-1.11,1.46-1.01,1.35-1.65,2.02
	c-0.21,0.49-0.42,0.99-0.66,1.47c-0.31,2.42-1.11,3.59-2.17,5.35c-0.36,1.13-0.69,1.56-1.03,1.83c-0.89,0.51-1.08,0.42-2.02,0.84
	c-1.3,0.6-2.1,1.8-2.39,3.23c-0.29,0.27-0.51,0.24-0.66-0.07c0,0,0.08-1.27,0.11-2.09c0.04-1.13,0.15-1.91-0.51-3.15
	c-0.17-0.61-0.13-1.02-0.15-1.14c-0.02-0.14-0.15-0.68-0.15-1.21c0.17-1.21,0.82-1.68,1.43-2.6c1.72-5.61,6.7-7.98,8.81-8.69
	C194.25,126.85,195.74,126.65,195.6,127.11z M191.27,129.97c-3.57,2.36-5.65,5.79-6.24,10.3c0.04,0.29,0.23,0.49,0.51,0.55
	c0.36,0.08,0.73-0.15,0.81-0.51C186.61,136.8,188.25,133.35,191.27,129.97z M187.49,128.94c-0.87,1.38-1.68,2.08-2.42,2.09
	c-1.1-1.1-2.26-3.11-2.5-3.74c-0.37-0.95-0.37-2.43-0.37-2.75c0-1.14,0.41-1.76,0.41-2.9c0-0.83-0.52-1.66-0.92-2.38
	c-0.6-1.09-0.55-0.99-0.55-2.24c0-1.99,0.55-3.11,0.55-5.1c0.11,0.22,1.21,2.31,3.01,3.7c0.91,0.71,1.32,1.43,1.54,2.53
	c-0.04,1.87,0.76,2.48,1.03,4.11c0.12,0.76-0.17,1.72-0.11,2.35C187.3,126.12,188.07,127.15,187.49,128.94z M185.25,126.97
	l-0.55-1.43c0-1.93-0.09-1.73-0.11-3.66c-0.04-4.25-0.81-3.92-1.18-6.05l-0.4,0.15c0.3,1.01,0.18,1.12,0.48,2.13
	c0.16,0.54,0.32,0.87,0.4,1.43c0.11,0.77,0.1,1.68,0.22,2.27c0,0.88-0.15,0.84-0.15,1.72c0,0.8-0.05,1.24,0.11,2.02
	c0.2,0.98-0.03,1.52,0.96,1.76L185.25,126.97z M194.39,121.47c0,1.27-0.72,2.18-1.32,3.3c-0.43,0.81-0.53,0.75-1.1,1.47
	c-0.32,0.4-2.47,0.77-2.87,0.77c-0.85,0-0.88-1.1-0.88-1.32c0-0.36,0.15-0.7,0.15-1.06l0.29-1.87c-0.1-0.82-0.4-0.39-0.4-1.21
	c0-1.3,0.06-1.32,0.48-2.57c0.3-0.92,0.79-1.67,1.06-2.6c0.46-1.59,0.56-2.57,1.36-4c0.38-0.67,0.74-1.51,1.47-1.87l0,0.55
	c0.03,0.39,0.19,0.63,0.19,1.02c0,0.38,0.32,0.5,0.43,0.85c0.33,1.06,0.92,1.59,0.92,2.7c0,0.61-0.27,0.95-0.27,1.57
	c0,0.8-0.02,1.24-0.02,2.03C193.87,120.21,194.39,120.48,194.39,121.47z M192.59,114.32l-0.26-0.69c0.01,0.66,0.13,0.95-0.11,1.39
	l-1.29,2.6c-0.64,1.38,0.03,3.29-0.33,5.68c-0.26,0.1-0.4,0.25-0.48,0.51c-0.05,0.16-0.05,0.28,0,0.44
	c0.16,0.14,0.34,0.23,0.55,0.26c0.76-0.54,0.92-1.27,1.1-2.35l-0.04-3.92C192.08,116.23,192.84,116.36,192.59,114.32z M185.8,102.37
	c0.88-0.33,0.18-2.75,1.18-2.9c0.24-0.24,0.33-0.47,0.33-0.81c0-0.36-0.32-0.62-0.68-0.62c-1.15,0-1.96,1.04-1.96,2.18
	C184.66,101.17,185.04,101.81,185.8,102.37 M189.7,112.03c0.05-0.2,0.14-1.43-0.38-1.93c-0.52-0.76,0.51-1.92-0.59-3.67
	c-0.47-0.74-0.87-2.02-1.8-2.09c0.18,0.9,0.07,1.08,0.14,1.45c0.02,0.1,0.03,0.54-0.02,0.62c-0.15,0.23-0.26,0.91-0.27,1.25
	c-0.02,1.84-0.01,2.48,0.03,2.68c0.12,0.66-0.06,0.75,0.04,1.16c0.07,0.26,0.27,0.66,0.27,0.66c0.15,0.73,0.46,1.09,0.58,2.18
	c-0.02,0.43-0.07,0.86-0.15,1.28l-0.29,0.29c-0.1-0.3-0.17-0.61-0.22-0.92c-0.27-0.25-0.27-0.25-0.39-0.75
	c-0.07-0.28-0.19-0.44-0.14-0.67c0.07-0.33-0.12-0.48-0.02-0.96c0.07-0.34,0.01-0.35-0.13-0.86c-0.2-0.72,0.11-0.36-0.5-1.6
	c-0.01-0.72,0.08-1.34,0.07-1.64c-0.05-1.42,0.48-2.27,0.44-3.64c0.15-0.19,0.15-0.43,0-0.62c-0.1-0.12-0.21-0.18-0.37-0.18
	c-0.85,0.16-1.65,1.3-2.25,2.22c-0.63,0.96-0.55,2.41-0.36,3.05c0.26,0.88,0,1.54,0,2.75c0,1.12,0.78,2.67,2.18,3.47
	c1.12,0.64,1.08,2.67,1.89,4.56c1.02-1.54,1.8-3.41,2.31-6.09c0.05-0.27,0.05-0.54,0-0.81C189.67,112.86,189.61,112.35,189.7,112.03
	z M183.89,92.18c-0.29-0.74-0.76-1.44-1.25-2.02c-0.5-0.59-1.01-1.02-1.51-1.69c-0.1,0.11-0.15,0.18-0.26,0.29
	c-0.23,0.26-0.36,0.4-0.59,0.66c-0.22,0.19-0.44,0.39-0.66,0.59c-0.14,0.13-0.21,0.23-0.29,0.4c-0.15,0.3-0.2,0.53-0.11,0.85
	c0.08,0.27,0.18,0.42,0.41,0.59c0.4,0.19,0.61,0.34,0.92,0.66c0.29,0.3,0.42,0.5,0.59,0.88l0.48,0.77c0.06,0.15,0.17,0.24,0.33,0.26
	c0.16,0.01,0.28-0.05,0.37-0.18c0.13-0.41,0.17-0.67,0.19-1.1c0.02-0.67-0.05-1.06-0.29-1.69c0.37,0.48,0.54,0.81,0.7,1.39
	c0.22,0.77,0.25,1.69-0.11,2.38l-0.07,0.37c0.42,0.17,0.66,0.31,1.03,0.59l0.26-2.64C184.03,93.08,183.99,92.62,183.89,92.18z
	 M178.2,88.95c-0.14-0.28-0.12-0.48-0.29-0.73c-0.26-0.38-0.51-0.56-0.95-0.7c-0.65-0.73-0.83-0.57-1.47-1.36
	c-0.3-1.26-0.61-1.19-0.66-2.38c-0.24-0.54-0.54-0.67-1.29-1.06c-0.32-0.4-0.32-0.43-0.55-1.39c0.18-1.66,0.39-0.82,0.33-2.24
	c-0.81-1.35-0.74-1.6-1.47-2.31c-0.43-0.49-0.57-0.94-0.81-1.28c-0.63,1.06-1.26,1.39-1.87,2.38c-0.22,0.57-0.04,0.72-0.22,1.58
	c-0.02,0.46-0.09,0.72-0.18,1.1c-0.04,0.39-0.13,0.77-0.26,1.14c-0.53,0.86-1.37,1.08-0.81,2.2c0.29,0.26,0.57,0.45,0.96,0.62
	c0.54,0.35,0.89,0.95,0.95,1.58c-0.02,0.47,0,0.7,0.15,1.39c0.69,1.37,1.47,1.89,2.72,2.23c0.3,0.18,0.7,0.38,0.95,0.44
	c0.68,0.72,0.57,0.34,1.36,1.43c0.62,0.54,0.97,0.75,1.65,0.44c0.46-0.29,0.7-0.82,0.62-1.36c-0.2-0.54-1.12-1.13-1.62-1.39
	c-0.52-0.27-1-0.65-1.32-1.14c-1.15-1.27-0.71-1.06-1.32-1.47c-0.23-0.25-0.43-0.54-0.59-0.84c0.09-0.61-0.5-1.69-0.92-2.13
	c-0.35-0.91-0.48-1.89-0.37-2.86c-0.03-0.76,0.01-1.53,0.22-2.27c0.18-0.22,0.16-0.23,0.33-0.2c0.13,0.02,0.21,0.05,0.25,0.42
	c-0.08,0.42-0.15,1.37-0.15,1.8c0,1.28-0.11,1.71,0.29,2.93c0.34,1.02,1.18,2.67,1.8,3.56c0.92,1.32,0.97,1.04,2.24,2.02
	c0.83,0.64,1.21,1.1,2.25,1.1c0.08,0,0.13-0.03,0.21-0.04c0.09-0.2,0.18-0.45,0.15-0.62C178.5,89.28,178.31,89.19,178.2,88.95z
	 M163.03,72.16c0.59,0.88,1.27,1.14,2.28,1.47c0.32-0.65,0.85-0.93,0.85-1.65c0-0.62-0.54-0.82-0.96-1.28
	c-0.6-0.67-0.85-1.13-1.43-1.8c-0.78-0.88-1.09-1.54-2.06-2.24c-0.43-0.31-0.69-0.62-1.22-0.62h-1.74c-0.83,0-1.22-0.49-2.03-0.66
	c-0.29,0.78-0.11,1.28-0.11,2.11c0,0.83-0.27,1.42,0.15,2.14c0.68,1.17,1.75,1.17,2.72,2.13c1.08,1.08,1.76,1.98,2.57,3.19
	c0.39,0.91,1.15,1.19,2.06,1.25l0.4-0.15c0.43-0.32,0.57-0.89,0.62-1.43l-0.07-0.26c-0.82-0.2-1.12-0.67-1.65-1.28
	c-0.77-0.88-1.16-1.41-1.76-2.42c-0.85-1.42-1.56-2.13-2.97-2.97c1.16,0.08,1.89,0.35,2.72,1.17
	C162.41,69.89,162.23,70.96,163.03,72.16z M170.23,75.17c-0.46-0.77-1.84-0.9-1.84-1.8c0-2.2-0.44-2.1-0.62-3.23l-0.59,1.1
	c-0.91,1.82-1.69,2.38-1.69,4.4c0,0.77,0.49,1.54,1.26,1.54c0.16,0,0.25-0.03,0.4-0.04c0-1.37-0.19-0.54-0.19-1.91
	c0-0.18,0.38-2.51,0.44-2.68c0,1.08-0.14,2.16,0.11,3.23c0.15,0.62,0.36,1.63,0.88,1.98c0.82-0.73,0.3-1,1.1-1.8L170.23,75.17z
	 M158.85,73l-0.07,0.73c-0.62,0.68-0.62,1.32-1.54,1.32c-0.27,0-0.58-0.07-0.85-0.07c-0.69,0-1.08-0.33-1.62-0.77
	c-0.59-0.49-1.12-0.51-1.88-0.51c-0.9,0-1.04-0.11-1.94-0.11c-0.75,0-1.47-0.4-1.98-0.95c-0.54-0.59-0.85-0.94-1.25-1.65
	c-0.31-0.57-0.37-1.32-0.88-1.72c1.2-0.46,1.97-0.18,3.25-0.18c1.6,0,2.51,0.24,4.06,0.62c1.66,0.41,2.74,0.61,3.96,1.83
	C158.56,71.99,158.56,72.44,158.85,73z M156.83,72.75c-0.08-0.59-0.73-0.54-1.14-0.95c-0.56-0.56-1.01-0.81-1.8-0.81l-2.13,0.44
	l-1.32-0.4l-0.48-0.11l-0.22,0.07c0.87,0.65,1.44,0.88,2.53,0.88c0.73,0,1.1-0.29,1.84-0.29c0.92,0,1.14,1.28,2.05,1.28
	c0.25,0,0.38,0.15,0.62,0.11L156.83,72.75z M108.99,178.51c-0.39-0.57-0.8-1.13-1.21-1.69c-1.06-1-2.35-1.79-3.78-2.09
	c0.37,1.42,1.26,4.05,2.06,5.79c1.26,1.84,1.45,1.9,1.73,2.02c0.15,0.06,0.25,0.05,0.4,0.04c0.29-0.03,0.39-0.29,0.22-0.62
	c-0.21-0.72-0.43-1.44-0.73-2.13c-0.84-1.59-1.06-1.9-1.47-2.27l-0.15-0.81c0.57,0.6,1,0.84,2.13,3.37c0.52,1.17,0.56,1.79,0.8,2.61
	c0.23,0.77,0.82,1.73,1.83,1.73l0.72,0.04l0.1-1.1C109.76,181.32,110.42,180.43,108.99,178.51z M85.64,168.35
	c0,0-2.74-1.32-4.26-2.42c-1.13-0.82-1.48-1.8-2.2-3.01c-0.82-1.37-1.41-2.15-1.91-3.67c-0.35-1.04-0.69-1.9-1.47-2.68
	c0.18,0,0.76,0.15,0.95,0.15c1.32,0,2.15,0.76,3.35,1.36c1.57,0.78,2.2,1.47,3.01,3.01c0.87,1.65,1.3,2.58,1.95,4.33
	C85.45,166.51,85.64,167.36,85.64,168.35z M84.06,166.37c-0.36-1.21-0.78-1.79-1.29-2.93c-0.19-0.44-0.23-0.77-0.55-1.14
	c-1.43-1.64-2.69-2.11-4.08-3.78l-0.07,0.11c0.25,0.31,0.23,0.59,0.44,0.92c0.88,1.37,1.76,1.82,2.97,2.9
	c0.91,0.81,0.87,1.69,1.47,2.75C83.26,165.74,83.43,166.26,84.06,166.37z M82.48,171.29h-1.35c-2.33,0-3.42-0.6-5.44-1.8
	c-1.46-0.85-2.16-1.09-3.42-2.2c-0.38-0.33-1.78-1.59-2.13-1.94c-0.36-0.36-1.24-1.69-1.87-2.13c1.27,0,2.47,0.4,3.73,0.4
	c2.39,0,2.97,2.23,4.78,3.81c1.31,1.14,2.09,1.69,3.67,2.38c0.55,0.24,1.15,0.01,1.58,0.44C82.34,170.56,82.21,170.95,82.48,171.29z
	 M78.51,170.08c-0.38-0.57-1.21-0.78-1.8-1.1c-1.12-0.61-1.95-0.81-2.72-1.83c-1.03-1.38-1.61-2.32-3.27-2.79
	c1.6,0.8,1.92,1.73,3.05,3.01C75.1,168.85,77.04,168.74,78.51,170.08z M91.36,179.28c0,0-1.32,0.18-3.2,0.07
	c-1.05-0.06-1.92-0.2-2.94-0.48c-2.13-0.59-3.76-0.85-5.07-2.6c-0.65-0.87-0.7-1.61-0.7-2.79c0.66,0.28,1.09,0.37,1.81,0.37h0.71
	c1.42,0,2.41,0.27,3.43,1.28c0.45,0.45,0.55,0.88,1.06,1.25c0.87,0.63,1.38,0.98,2.35,1.43c0.39,0.17,0.61,0.33,1.03,0.4
	c0.33,0.06,0.95,0.03,0.95,0.37C90.81,178.84,91.39,179.02,91.36,179.28z M86.68,177.7c-2.1-1.33-3.58-1.5-5.67-2.9
	c0.48,0.96,1.16,1.15,2.06,1.65c1.38,0.76,2.13,1.1,3.62,1.76C86.68,178.01,86.67,177.9,86.68,177.7z M89.56,175.25
	c0.37,0.88,1.06,1.64,1.25,2.6l-0.59-0.22c-0.84-0.29-1.45-0.43-2.28-0.88c-1.1-0.6-1.6-1.16-2.5-2.05
	c-2.09-2.09-2.81-3.28-3.45-6.2l-0.11-0.66c0.29,0,0.59,0.22,0.88,0.22c0.62,0,0.83,0.27,1.43,0.44c2.02,0.59,3.09,1.49,4.63,2.9
	c1.08,0.99,1.71,1.8,2.42,3.08c0.23,0.41,0.34,0.39,0.51,0.84h-1.5C90.14,175.32,89.63,175.23,89.56,175.25z M89.05,174.29
	c-0.41-0.99-1.02-1.42-1.73-2.24c-1.09-1.25-1.86-2.12-3.49-2.46c1.04,0.77,0.85,2.01,1.98,2.68c1.22,0.72,2.02,1.11,2.86,2.24
	L89.05,174.29z M103.41,183.68c-1.05,0.61-1.74,0.99-2.94,0.99c-1.02,0-1.58-0.31-2.5-0.77c-1.45-0.72-2.23-1.22-3.3-2.42
	c-1.85-2.05-2.91-3.09-4.11-5.65h1.42c0.76,0,1.17,0.29,1.88,0.56c1.96,0.73,2.98,1.51,5.07,1.72l0.51,0.07
	C101.02,180.29,101.3,182.1,103.41,183.68z M100.14,182.14c0-0.77-0.9-0.81-1.47-1.32c-0.81-0.74-1.22-1.2-2.17-1.76
	c-1.33-0.8-2.1-1.47-3.63-1.47c-0.06,0-0.09,0.06-0.15,0.07c1.46,0.72,2.37,0.98,3.6,2.05C97.66,180.88,98.41,181.8,100.14,182.14z
	 M97.35,177.15c-1.08,0.08-1.93-0.62-2.9-1.1c-1.32-0.66-2.13-1.12-3.05-2.27c-1.73-2.15-3.17-7-3.12-7.3
	c1.18,0.33,2.05,0.61,3.12,1.21c1.03,0.57,1.69,0.97,2.35,1.94c0.42,0.61,0.73,0.81,0.99,1.5c0.17,0.49,0.96,2.23,1.21,2.9
	C96.35,175.11,97.35,177.15,97.35,177.15z M94.37,174c-0.52-2.1-1.08-3.66-3.01-4.62c-0.68-0.34-1.08-0.7-1.84-0.7l0.15,0.04
	c1.35,0.9,2.21,1.34,3.05,2.68c0.64,1.04,0.73,1.83,1.58,2.71L94.37,174z M72.64,160.77l-0.04,0.15c-1.09-0.25-1.66-0.61-2.68-1.06
	c-0.68-0.3-1.16-0.27-1.8-0.66c-1.76-1.1-2.74-1.74-4.19-3.19c-0.86-0.86-1.03-1.64-1.43-2.79c-0.4-1.15-0.83-1.73-1.21-2.9
	c1.54,0.33,2.19,1.17,3.56,1.94c1.39,0.78,2.14,1.27,3.45,2.2C70.76,156.2,72.28,157.79,72.64,160.77z M70.91,158.53
	c-1.49-1.82-2.87-2.27-4.74-3.67c-1.41-1.05-1.98-1.87-3.27-3.15c0.47,1.4,1.17,1.99,2.16,3.08c0.74,0.81,1.08,1.38,2.02,1.9
	c0.89,0.49,1.39,0.77,2.28,1.28c0.58,0.33,1.06,0.35,1.5,0.84L70.91,158.53z M70.55,152.09v2.62c-1.43-0.57-2.31-0.81-3.45-1.83
	c-2.62-2.37-3.34-4.27-3.34-7.81c0-0.66,0.26-1.54,0.48-2.42c1.06,1.06,1.52,2.29,2.57,3.34C68.78,147.97,70.55,149.31,70.55,152.09
	z M69.41,153.1c-2.13-5.02-2.23-3.35-3.56-5.57c-0.5-0.83-0.6-1.97-1.14-3.04l0.18,1.61c0.5,1.01,0.02,0.59,0.51,1.58
	c0.66,1.32,1.21,1.28,2.09,2.46C68.1,150.96,68.49,152.61,69.41,153.1z M65.96,143.54l-1.69-2.02l-0.26-0.44
	c-0.11,0.44-0.26,1.43-0.33,1.39c-1.11-0.55-1.9-0.9-2.72-1.83c-1.53-1.75-1.47-3.69-1.47-5.99c0-2.03,0.06-2.36,0.15-4.38
	c0.05-0.36,0.11-1.7,0.11-2.05c0-0.89,0.04-1.64,0.04-2.53c1.03,0.66,1.46,1.97,2.06,3.01c0.68,1.16,1.18,2.13,1.72,3.52
	c0.31,0.77,0.88,2.7,1.25,3.7c0.57,1.55,0.66,2.48,0.84,4.11c0.04,0.36,0.18,1.08,0.18,1.44C65.84,142.04,65.96,142.95,65.96,143.54
	z M63.46,140.13l-0.37-0.84c-0.5-1.27-0.77-1.59-0.77-2.93c0-0.13,0.05-0.19,0.05-0.32v-2.84c0-1.53-0.7-2.93-1.55-4.21
	c0.17,1.37,0.92,2.59,0.92,3.97v4.09C61.73,138.26,62.4,139.51,63.46,140.13z M64.52,132.68c0-0.28,0.06-1.77,0.11-2.05
	c0.26-1.47,0.13-1.17,0.52-2.27c0.11-0.32,0.86-1.58,0.73-1.9c-0.07-0.18-0.76-1.92-0.85-2.97c-0.39,1.19-0.79,2.71-1.43,3.78
	c-0.2,0.34-0.24,0.33-0.48,0.66c-0.14,0.2-0.58,0.49-0.52,0.73c0.07,0.26,0.95,1.88,1.29,2.46L64.52,132.68z M65.18,119.96
	c0.16,0.63-0.04,1.05-0.04,1.7c0,0.73,0.01,1.16-0.11,1.89c0.83-0.2,1.36-0.7,1.84-1.39c0.98-1.44,1.23-2.24,1.91-3.85
	c0.98-2.34,1.21-3.53,1.21-6.05c0-0.57-0.15-1.83-0.48-2.56c-0.95,1.58-1.49,1.75-2.83,2.64c-1.08,0.72-1.89,1.2-2.5,2.35
	c-0.29,0.54-0.4,1.36-0.4,1.47c0,0.04,0.05,1.1,0.29,1.47c0.29,0.44,0.5,0.75,0.81,1.17c1.58-1.9,0.79-0.98,2.17-3.04l1.54-3.26
	c0.01,0.1-0.23,1.22-0.26,1.32c-0.29,0.99-0.48,1.6-0.88,2.35c-1.25,2.31-0.97,2.08-2.24,3.77L65.18,119.96z M57.18,109.88
	c-0.09,1.18-0.6,1.76-0.95,2.9c-0.67,2.18-1.1,3.56-1.1,5.83c0,1.31-0.01,2.03,0.37,3.3c0.22,0.75,0.47,1.6,0.73,2.35
	c0.37,1.02,0.56,1.47,0.95,2.46c0.4,1.02,0.87,1.89,1.87,2.35c0-1.06-0.04-2.02-0.04-3.08c0-0.8-0.78-1.13-1.21-1.8
	c-0.54-0.84-0.75-1.38-1.1-2.31c-0.6-1.6-0.81-2.58-0.81-4.29c0-1.49,0.25-2.37,0.92-3.7c0.01,0.09,0.04,0.14,0.04,0.23
	c0,1.27-0.18,1.99-0.18,3.25c0,1.99,0.06,3.04,0.73,4.91c0.34,0.96,0.98,1.74,1.91,2.2l0.15-0.04c0.01-0.06,0.11-0.56,0.11-0.62
	c0-0.7-0.07-0.55-0.07-1.25c0-0.29-0.39-1.62-0.55-2.13c-0.63-1.98-0.95-3.15-0.95-5.22v-0.72l0.29-1.76
	c-0.16-1.13-0.42-1.73-0.99-2.71L57.18,109.88z M63.06,112.63c-0.17,0.74,0.07,2.06,0.07,2.82c0,2.47,1.39,3.4,1.39,5.87
	c0,2.61-0.27,4.45-2.17,6.34c0,0-1.62-2.16-2.13-3.78c-0.35-1.12-0.21-1.83-0.48-2.97c-0.22-0.92-0.48-1.39-0.7-2.31
	c-0.23-0.96-0.4-1.5-0.44-2.49c-0.06-1.42,0-2.29,0.55-3.59c0.31-0.75,0.49-1.22,1.06-1.8c0.92-0.94,1.8-1.36,3.12-1.28
	c0.61,0.04,1.51,0.4,1.51,0.4C64.63,110.18,63.59,110.31,63.06,112.63z M62.91,121.84c0-2.34-1.76-3.36-1.76-5.69
	c0-1.62,0.37-2.96,0.88-4.51c-0.84,1.13-1.18,2.47-1.18,3.88v0.83c0,1.15,0.48,1.78,1.07,2.78c0.69,1.18,0.66,2.08,0.66,3.45
	c0,0.69-0.01,1.1-0.15,1.8v0.55l0.48-2.2V121.84z M62.65,100.57c-0.7,2.79-1.27,5.18-1.43,7.85l0.07,0.92
	c-0.58,0.33-1.06,0.62-1.62,0.99c-0.48-0.95-0.62-1.57-0.81-2.82c-0.04-0.27-0.15-1.42-0.15-2.49c0-1.56,0.2-3.07,0.62-4.58
	c0.48-1.71,0.98-2.78,1.54-4.47l1.36-2.38C62.78,95.23,63.39,97.64,62.65,100.57z M61.95,96.72c-0.88,1.44-1.25,2.37-1.58,4.03
	c-0.39,1.95-0.19,2.86,0.04,5.09c0.38-0.88,0.53-1.43,0.66-2.38c0.14-1.09-0.17-1.72-0.07-2.82C61.13,99.08,61.35,98.18,61.95,96.72
	z M68.16,102c-0.5,1.78-1.61,2.47-2.09,4.25c-0.33,1.21-0.43,1.93-0.44,3.19c-2.13-0.33-0.04-0.81-1.21-1.36
	c-0.91-0.38-1.84-0.15-2.46,0.62c-0.06-5.6,2.13-12.68,6.06-14.33C68.23,95.73,68.97,99.14,68.16,102z M66.91,96.43
	c-0.24,2.05-0.51,3.21-1.18,5.17c-0.43,1.26-1,1.86-1.32,3.15c-0.18,0.74-0.25,1.18-0.29,1.94l0.37-0.07
	c0.09-0.78,0.17-1.22,0.37-1.98c0.4-1.54,1.17-2.23,1.58-3.77C66.88,99.18,66.99,98.17,66.91,96.43z M75.83,96.57
	c-1.76,4.77-6.39,10.01-7.86,10.93c-0.19,0.12-1.16,1.1-1.39,1.1c0.07-0.62,0.84-1.69,0.84-2.31c0-1.27,0.66-1.47,0.95-2.71
	c0.17-0.73,0.48-1.4,0.48-2.15v-1.07C70.44,96.1,73.48,97.82,75.83,96.57z M73.12,99.76l0.92-1.47c-0.65,0.43-1.17,0.92-1.8,1.39
	c-0.89,0.69-1.18,0.51-1.95,1.87c-0.49,0.86-1.25,1.47-1.25,2.46c0,0.12-0.22,0.73-0.18,0.84c0.74-0.99,1.02-2.36,1.84-3.3
	C71.61,100.51,72.01,100.59,73.12,99.76z M69.26,82.72c-1.18,1.21-1.14,1.25-1.8,2.27c-1.18,1.83-1.51,3.61-1.51,5.79
	c0,0.88-0.04,1.5-0.04,2.38c0,0.8-0.19,0.94,0,1.72c0.47-0.35,1.05-1.02,1.62-1.17c0.47-0.13,1.28,0.04,1.21-0.44
	c-0.33-2.35-0.59-3.08-0.59-5.06c0-1.22,0.38-2.59,0.48-3.81c-0.07,2.42,0.2,3.17,0.26,4.77c0.03,0.95,0.24,1.47,0.33,2.42
	c0.04,0.44,0.11,0.71,0.29,1.1c0.07,0.17,0.09,0.44,0.29,0.44c0.43,0,0.6-0.34,0.88-0.66c0.27-0.3,0.7-0.39,0.7-0.81
	c0-0.41-0.31-0.58-0.48-0.95c-0.26-0.58-0.29-0.94-0.52-1.54c-0.64-1.69-0.59-2.76-0.59-4.54c0-0.99-0.06-1.59,0.26-2.53
	L69.26,82.72z M78.77,80.08c0,0.13-0.43,1.63-0.44,1.76c-0.37,3.37-0.86,4.53-3.23,6.89c-0.82,0.82-1.95,1.72-3.08,1.98
	c0-1.62-0.32-2.67-1.29-3.96l0.37-0.55c0.91-1.22,1.52-1.97,2.86-2.71c0.9-0.49,0.95-0.24,1.8-0.81
	C76.68,82.08,77.74,80.59,78.77,80.08z M77.34,82.72c-0.88,0.8-1.76,1.61-2.61,2.46c-0.75,0.75-1.31,0.49-1.62,1.5l-0.15,0.73
	c0.23,0.27,0.22,0.26,0.44,0.55l0.04,0.15c0.28-1.16,0.63-1.84,1.47-2.68C75.77,84.58,77.14,83.93,77.34,82.72z M83.47,87.23
	l-0.18,0.4c-0.81,1.91-2.28,1.93-3.3,3.12c-0.45,0.52-2.68,1.44-3.45,1.76c-1.14,0.47-1.51,0.47-2.5,1.21
	c-0.94,0.7-1.16,2.2-2.35,2.2c-0.29,0-0.58-0.05-0.85-0.15c-0.17-0.06-0.59,0.08-0.59-0.11c0-0.32,0.35-0.62,0.48-0.92
	c0.38-0.84,0.65-1.3,1.14-2.09c1-1.6,2.04-2.93,3.82-3.56c1.04-0.36,1.27-0.61,2.28-1.02c0.8-0.33,1.28-0.66,2.13-0.84
	c0.86-0.18,1.41,0,2.29,0H83.47z M81.12,88.55c-1.78,0.89-3.17,1.91-5.07,2.46c-1.75,0.5-3.12,1.27-3.56,3.04l0.07-0.15
	c0.62-0.79,0.83-1.43,1.69-1.91c1.65-0.92,2.04-0.69,3.82-1.32c0.81-0.29,1.18-0.7,1.98-1.1L81.12,88.55z M90.45,72.09
	c-0.38,0.51-0.66,1.41-1.14,1.83c-0.67,0.6-0.76,0.97-1.25,1.72c-0.57,0.88-0.51,0.73-1.06,1.87l-0.07,0.26
	c-0.57,0.04-0.83,0.11-1.39,0.11c-0.86,0-1.22,0.64-2.06,0.88c-1.65,0.48-3.67,3.15-3.86,2.05c0.19-1.25,0.2-1.56,0.77-2.42
	c1.34-2.01,2.48-3.33,4.59-4.47c0.97-0.52,1.62-0.64,2.68-0.99c0.93-0.3,1.41-0.53,2.39-0.77L90.45,72.09z M88.83,73.52l-1.91,1.32
	c-1.51,0.61-0.88,0.77-1.62,0.84c-0.9,0.09-1.26,0.71-1.98,1.25c-0.41,0.3-1.14,0.51-1.14,1.03c0,0.14,0.16,0.33,0.29,0.33
	c0.11,0,0.22-0.07,0.33-0.07c0.77,0,0.96-0.63,1.51-1.17c0.48-0.48,0.87-0.63,1.47-0.95C87.14,75.35,87.67,74.56,88.83,73.52z
	 M97.13,70c-0.15,0.02-0.22,0.04-0.37,0.04c-0.86,0-1.37,0.18-2.24,0.18c-1.01,0-1.48,0.02-2.31,0.59c-0.73,0.5-1.16,0.98-1.51,1.8
	c-0.6,1.4-1.47,1.75-1.84,3.23l2.5,0.14c2.06,0,3.39-0.82,5.03-2.05c0.53-0.39,0.86-0.61,1.39-1.03c1.78-1.37,2.6-1.52,4.7-2.27
	c0.58-0.2,1.94-0.42,2.5-0.7c-1.14-0.57-2.24-0.33-3.45-0.33c-2.51,0-3.9,0.61-6.24,1.61c-1.62,0.69-2.67,1.93-3.93,3.19
	c1.21-1.61,1.76-4,5.66-4.4H97.13z M109.57,64.24c-0.34,0.08-0.24,0.07-0.59,0.07c-0.27,0-0.83-0.04-1.1-0.04
	c-1.51,0-1.99,0.04-3.51,0.04c-0.89,0-1.39-0.07-2.28-0.07c-0.63,0-1.43,0.87-1.67,1.47l2.68,0.11h0.8c1.16,0,1.79-0.2,2.95-0.37
	c-1.79,0.89-2.94,1.28-4.92,1.28c-0.9,0-1.41-0.11-2.31-0.11c-0.67,0-0.7,1.2-1.14,1.72c1.66,0,2.3-0.04,3.96-0.04
	c1.47,0,2.45-0.54,3.82-1.06c1.05-0.39,1.92-1,2.72-1.8c0.4-0.4,0.79-0.94,1.21-1.32L109.57,64.24z M98.01,66
	c-0.35,0-0.61,0.06-0.85,0.18c-1.39,0.7-1.82,0.59-3.34,1.25c-0.93,0.4-1.06,0.49-1.87,1.1c-0.34,0.25-0.62,0.78-0.95,1.02
	c-0.2,0.15-1.18,1.37-1.18,1.43c1.41-0.47,2.83-1.69,4.31-1.69h0.86c0.92,0,1.64-0.35,2.28-0.99c0.68-0.68,1.04-1.39,1.62-2.16
	L98.01,66z M101.61,62.78l-6.31-0.07c-3.03,0.5-5.11,2.33-6.83,4.84c-0.92,1.34-1.76,2.53-1.76,4.14c0,0.22,0.44,0.48,0.66,0.48
	c0.48,0,0.99-0.84,1.32-1.17c0.7-0.7,1.1-1.36,1.8-2.05c1.18-1.17,1.75-1.53,3.16-2.42c2.25-1.43,2.75-0.53,6.17-2.23L101.61,62.78z
	 M83.58,69.41l-0.04,1.21c0,1.74-0.47,2.43-1.25,4c-0.55,1.11-1.42,1.32-2.13,2.35c-1.13,1.65-1.9,2.74-3.49,3.92
	c-0.88,0.66-1.93,1.38-2.97,1.8c0-0.33,0.19-1.1,0.19-1.43c0-1.53,0.5-2.27,0.99-3.74c0.44-1.34,1.25-2.46,2.13-3.56
	C78.84,71.66,81.5,71.49,83.58,69.41z M82.37,71.46c-0.62,0-0.88,0.99-1.29,1.47c-0.6,0.72-1.14,0.92-1.8,1.58
	c-0.52,0.51-1.14,0.84-1.36,2.13c-0.06,0.37-1.49,2.62-1.21,2.86c1.06-1.06,1.42-2.58,2.06-3.59c1.04-1.66,2.5-1.5,3.12-3.37
	l0.18-0.48C82.01,72.04,82.43,71.46,82.37,71.46z M92.87,78.47c-1.43,2.24-3.28,2.71-4.99,3.78c-1.19,0.74-2.58,1.29-3.89,1.72
	c-1.57,0.52-1.74,0.7-3.27,1.35c-1.44,0.62-2.18,2.09-3.74,2.31c0.6-0.9,1.06-1.82,1.36-2.86c0.28-0.97,0.37-1.39,0.59-2.53
	l0.99-0.48c1.45-1.15,1.5-1.04,3.01-2.05c1.33-0.88,2.19-1.06,3.79-1.06h0.68c0.79,0,1.53-0.04,2.32-0.04
	c0.78,0,0.91,0.15,1.69,0.15C91.65,78.76,92.69,78.3,92.87,78.47z M89.27,80.08l-2.06-0.15c-1.65,0.04-2.16,0.41-4.11,1.5
	c-1.52,0.85-2.57,1.21-3.45,2.86l0.04,0.22c0.11,0.01,0.18,0.04,0.29,0.04c0.28,0,0.44-0.54,0.62-0.73c0.51-0.55,0.5-0.53,0.84-0.88
	c0.8-0.8,1.26-0.89,2.24-1.43c1.54-0.85,2.54-1.39,4.31-1.39C88.31,80.11,88.96,80.08,89.27,80.08z M81.16,169.31
	c-1.3-0.32-1.85-0.79-2.94-1.54c-1.21-0.83-1.58-1.53-2.57-2.64c-0.55-0.61-1.03-1.23-1.36-1.98c-0.97-2.21-0.81-3.72-1.72-5.94
	l0.14,0.04c0.77,0.44,1.26,0.63,2.02,1.1c0.47,0.29,1.99,2.05,2.35,2.46c1.04,1.15,0.79,1.26,1.73,2.46
	c1.01,1.29,0.77,1.2,1.58,2.64c0.46,0.82,0.7,1.13,0.85,2.24C81.28,168.49,81.16,169.31,81.16,169.31z M79.52,167.29l-0.19-0.12
	c-0.71-1.43-1.37-2.08-2.34-3.32c-0.91-1.17-0.85-2.43-2.16-3.15c1.35,2.05,1.66,3.54,3.27,5.37
	C78.56,166.6,78.82,167.09,79.52,167.29z M75.36,157.28c-1.29-0.49-2.09-1.6-2.42-2.93c-0.58,0.14-0.29,0.69-0.33,1.28
	c-0.58-0.34-0.87-0.7-1.06-1.35c-0.33-1.11-0.73-1.97-0.73-3.12c0-2.35,0.29-2.68,0.77-5.87c0.08-0.51,0.26-1.28,0.22-1.98
	c1.12,1.4,1.9,2.88,2.17,4.62c0.09,0.62,0.22,1.84,0.4,2.46c0.44,1.47,0.33,1.93,0.33,3.45c0,0.54,0.07,1.04,0.07,1.58
	c0,0.88-0.03,0.9,0.37,1.69L75.36,157.28z M73.46,150.68c0-1.55-0.06-2.64-1.02-3.88v3.38c0,1.25-0.32,2.17,0.46,3.15h0.56V150.68z
	 M107.34,183.49c-0.46,0.18-3.12,1.06-6.02-2.86c-0.69-0.93-0.77-1.66-1.39-2.64c-0.69-1.09-0.71-1.79-0.81-3.08
	c2.05,0.68,2.95,1.26,4.48,2.79c0.67,0.67,0.73,1.3,1.25,2.09c0.92,1.37,0.51,0.81,1.39,2.2L107.34,183.49z M105.25,182.48
	c-1.22-0.4-1.45-1.43-2.1-2.52c-0.83-1.4-1.36-2.29-2.77-3.14c2.48,1.72,1.82,5.31,4.81,5.97L105.25,182.48z M69.77,137.12
	c0,1.92-0.27,3.01-0.59,4.91c-0.1,0.64-0.29,1.01-0.29,1.66c0,0.61-0.19-0.2-0.18,2.56l-0.62-0.22c-1.33-1.15-1.01-2.23-1.43-5.06
	c-0.52-2.67-1.4-6.09-1.47-7.48c-0.19-3.03,0.54-6.47,3.05-8.43c-0.22,0.75-0.37,2.31-0.11,5.87c0.35,1.48,0.87,3.35,1.39,4.36
	C69.67,135.98,69.77,136.41,69.77,137.12z M68.33,139.42c0-2.55-1.6-3.8-1.6-6.35c0-0.68,0.31-1.03,0.31-1.71v-1.46
	c-0.83,1.25-0.74,2.28-0.74,3.77c0,1.41,1.05,2.08,1.05,3.49v2.98c0,0.94,0.4,1.42,0.69,2.32C68.15,141.28,68.33,140.6,68.33,139.42
	z M63.2,144.85l0.29-1.69c-0.62-0.29-1.09-0.49-1.53-0.76c1.75,2.25-1.33,0.54-1.61-0.13c-0.39-0.93-1.73-2.74-1.73-3.76
	c0-0.74-0.25-2.6-0.25-3.34c0-1.08-0.43-1.37-0.86-2.35c-0.12-0.27-0.19-0.51-0.26-0.74c-0.1-0.12-0.18-0.24-0.29-0.36l-0.31-0.8
	c0.35,0.37,0.48,0.75,0.6,1.16c1.56,1.92,1.58,3.32,1.93,5.93c0.07,0.53,0.25,0.94,0.47,1.33c-0.14-0.52-0.26-1.06-0.38-1.57
	c-0.19-0.81-0.29-3.36-0.29-4.98c0-0.61,0.07-2.29,0.07-2.9c-1.33-0.33-2.94-0.68-4.08-1.43c0.22,1.43,0.5,2.37,0.77,3.48
	c0.66,2.71,0.84,3.63,1.51,6.2c0.33,1.29,0.51,2.27,0.84,3.56c0.31,1.21,0.42,1.3,0.81,2.49c0.52,1.56,1.78,2.74,3.41,3.01
	l1.07,0.18l-0.22-1.03L63.2,144.85z M140.05,191.32c-0.59-0.18-1-0.36-1.63-0.36c-0.79,0-1.72,0.29-1.72,1.08
	c0,0.63,0.81,0.81,1.45,0.81C139.1,192.86,139.9,192.27,140.05,191.32 M155.98,68.75c0,0.33,0.07,0.52,0.15,0.84l-1.47-0.26
	c-0.46-0.25-0.94-0.47-1.43-0.66c-1.57-0.38-3.24-0.49-4.85-0.29l-0.51-0.55c-0.59-0.3-1.22-0.51-1.84-0.73
	c-0.95,0.09-1.5-0.18-2.13-0.48c-0.38-0.08-0.75-0.2-1.1-0.37c-1.11-0.21-1.37-0.02-2.17-0.59c-0.41-0.39-0.82-0.77-1.21-1.17
	c-0.29-0.58-0.59-1.15-0.81-1.76c-0.06-0.3-0.11-0.61-0.15-0.92c2.84-0.13,3.62-2.69,6.13-1.21c1.03,0.45,1.26,0.73,1.95,0.99
	c0.97,0.15,0.87-0.14,1.65-0.07c0.86-0.1,2-0.11,2.53,0.7c0.39,0.49,0.52,0.38,1.1,1.32c0.24,0.2,0.51,0.42,0.81,0.51
	c0.34,0.17,0.68,0.33,1.03,0.47c0.43,0.05,0.86,0.12,1.29,0.22c0.43,0.03,0.86,0.08,1.29,0.15c-0.05,0.11-0.18,1.25-0.22,1.36
	l0.07,1.1v0.72C156.09,68.34,155.98,68.5,155.98,68.75z M153.01,66.44c-0.57-0.95-1.38-1.09-2.39-1.5
	c-0.86-0.36-1.35-0.77-2.29-0.77c-1.12,0-1.76,0.04-2.88,0.04c-1.37,0-2.17-0.28-3.42-0.81c-0.55-0.23-0.67-0.74-1.25-0.88
	l0.04,0.15c1.07,1.42,2.35,1.94,4.13,1.94c1.19,0,1.87-0.07,3.06-0.11c1.24,0.3,1.98,0.42,3.09,1.06c0.63,0.37,0.85,1.03,1.59,1.03
	h0.28L153.01,66.44z M185.47,103.43c-0.91,0.82-1.59,1.18-2.2,2.24c-0.25,0.43-0.31,0.71-0.48,1.17c-0.16,0.46-0.29,1.23-0.73,1.03
	c-0.48-0.22-1.4-1.14-1.43-1.55c-0.13-1.44,0.44-2.06,0.44-3.51c0-0.62-0.18-0.99-0.62-1.43c-0.91-0.91-2.85-1.31-2.85-2.58
	c0-1.22,0.5-1.89,0.5-3.11c0-1.29-0.84-1.9-0.84-3.19c0-0.39,0.27-0.95,0.66-0.95c1.72,0,1.84,1.9,3.16,3.01
	c0.62,0.51,0.92,0.91,1.58,1.36c0.82,0.56,1.54,1.02,1.54,2.02c0,0.2-0.17,0.3-0.17,0.5v1.81c0,0.57,0.25,0.86,0.46,1.39
	c0.24,0.59,0.25,0.95,0.84,1.25L185.47,103.43z M182.45,100.16c0-0.7-0.47-1.01-0.92-1.53c-0.47-0.54-0.58-0.98-0.81-1.65
	c-0.42-1.21-0.62-2.26-1.8-2.75c0.37,0.61,0.48,1.05,0.48,1.77v0.97c0,1.11,1.03,1.4,1.69,2.28c0.52,0.7,0.32,1.42,0.95,2.05h0.29
	l0.11-0.18V100.16z M181.06,153.01c0,1.41-0.23,2.43-0.7,3.76c-0.3,0.87-0.31,1.28-0.92,1.98c-0.82,0.94-0.96,1.44-2.02,2.09
	c-1.03,0.64-2.5,1.06-3.38,1.94c-0.7-0.25-0.37-1.11-0.37-1.84c0-0.76-0.02-1.2-0.02-1.96c0-0.49-0.17-0.76-0.17-1.26
	c0-0.49,0.47-0.63,0.85-0.95c0.5-0.43,0.74-0.67,1.21-1.14c0.56-0.56,1.16-0.82,1.65-1.43c0.62-0.77,0.88-1.61,1.36-2.49
	c0.18-0.34,0.3-0.55,0.4-0.92c0.06-0.23,0.13-0.4,0.37-0.4C180.56,150.39,181.06,151.79,181.06,153.01z M179.7,152.85l-0.04,0.15
	c-0.27,0.71-0.34,1.15-0.7,1.8c-0.75,1.34-1.62,1.75-2.57,2.97c-0.74,0.96-1.78,1.33-1.78,2.54v0.43H175
	c0.14-0.14,0.22-0.24,0.33-0.4l0.29-0.7c0.73-1.75,2.06-2.15,3.19-3.66C179.57,154.95,179.7,154.11,179.7,152.85z M167.99,79.02
	l-0.11,2.13l-0.07,0.44c-0.44,0.6-1.16,0.88-1.92,0.88h-0.86c-2.42,0-2.99-2.74-5.37-3.15c-0.63-0.11-0.99-0.21-1.62-0.4
	c-0.42-0.13-0.83-0.04-1.06-0.4c-0.68-1.04-0.4-1.43-1.62-1.91l-1.18-0.51c0.29-0.7,1.9-0.59,2.68-0.59c0.35,0,0.96-0.02,1.25-0.22
	c0.59-0.4,0.8-0.94,0.92-0.99c0.71,0.62,1.43,1.21,2.2,1.76c0.64,0.25,1.64,0.61,2.02,0.7c0.36,0.1,0.75,0.06,1.69,0.37
	c0.76,0.06,1.03,0.38,1.36,0.59c0.48,0.29,0.98,0.54,1.47,0.81L167.99,79.02z M165.87,80.27c-0.37-0.97-1.08-1.28-2.01-1.71
	c-0.69-0.32-0.87-0.66-1.63-0.66c-0.32,0-0.67-0.09-0.99-0.09c-0.83,0-1.35-0.17-2.02-0.64c-0.27-0.19-0.48-0.63-0.81-0.63
	c-0.09,0-0.08,0.27-0.14,0.31c1.09,0.69,1.77,1.3,3.06,1.3c0.51,0,0.7,0.16,1.21,0.16C164.05,78.31,165.87,80.96,165.87,80.27z
	 M135.7,190.84c0,0-3.45-0.8-6.42-2.43c-2.97-1.63-4.25-2.62-8.31-3.79c-0.89-0.26-1.85-0.61-2.78-0.61c-1.06,0-4.1-0.47-2.19,1.32
	c5.46,0.41,7.08,1.79,11.92,4.34c2.22,1.18,4.4,2.97,6.91,2.97c0.34,0,0.88,0.07,0.69-0.36C134,191.26,135.21,190.92,135.7,190.84"
	/>
</svg>
